<svg width="16" height="30" viewBox="0 0 16 30" fill="none" xmlns="http://www.w3.org/2000/svg">
<path d="M14.8827 30C14.736 30.0001 14.5907 29.971 14.4552 29.9145C14.3197 29.858 14.1965 29.7751 14.0927 29.6706L0.326986 15.796C0.117617 15.5849 0 15.2987 0 15.0002C0 14.7018 0.117617 14.4155 0.326986 14.2045L14.0927 0.329888C14.1964 0.225336 14.3195 0.14239 14.455 0.085788C14.5905 0.0291857 14.7358 3.48745e-05 14.8824 3.12723e-08C15.0291 -3.48119e-05 15.1743 0.0290471 15.3099 0.0855851C15.4454 0.142123 15.5685 0.22501 15.6723 0.329513C15.776 0.434017 15.8583 0.55809 15.9145 0.694649C15.9706 0.831208 15.9996 0.977578 15.9996 1.1254C15.9996 1.27323 15.9708 1.41961 15.9147 1.5562C15.8586 1.69278 15.7763 1.8169 15.6726 1.92145L2.6961 14.9999L15.6726 28.0783C15.8289 28.2357 15.9354 28.4363 15.9785 28.6547C16.0216 28.8731 15.9995 29.0995 15.915 29.3052C15.8304 29.511 15.6872 29.6868 15.5034 29.8105C15.3197 29.9341 15.1036 30.0001 14.8827 30Z" fill="#898989"/>
</svg>
