<svg width="16" height="30" viewBox="0 0 16 30" fill="none" xmlns="http://www.w3.org/2000/svg">
<path d="M1.11731 -1.66809e-07C1.264 -6.71354e-05 1.40926 0.0289903 1.54481 0.0855125C1.68035 0.142035 1.80351 0.224915 1.90727 0.329419L15.673 14.204C15.8824 14.4151 16 14.7013 16 14.9998C16 15.2982 15.8824 15.5845 15.673 15.7955L1.90727 29.6701C1.80358 29.7747 1.68047 29.8576 1.54498 29.9142C1.40948 29.9708 1.26425 30 1.11758 30C0.970902 30 0.825659 29.971 0.690137 29.9144C0.554615 29.8579 0.431468 29.775 0.32773 29.6705C0.223991 29.566 0.141694 29.4419 0.0855324 29.3053C0.029371 29.1688 0.000445542 29.0224 0.00041099 28.8746C0.000376438 28.7268 0.0292327 28.5804 0.0853303 28.4438C0.141428 28.3072 0.22367 28.1831 0.327359 28.0785L13.3039 15.0001L0.327362 1.92173C0.171071 1.76431 0.0646239 1.56371 0.0214898 1.3453C-0.0216443 1.12689 0.00047173 0.9005 0.0850418 0.694765C0.169612 0.489031 0.312836 0.313203 0.496587 0.18953C0.680338 0.0658577 0.896358 -0.000101128 1.11731 -1.66809e-07Z" fill="#898989"/>
</svg>
