<svg width="40" height="39" viewBox="0 0 40 39" fill="none" xmlns="http://www.w3.org/2000/svg">
<path fill-rule="evenodd" clip-rule="evenodd" d="M0 1.34483C0 0.602099 0.604481 0 1.35013 0H5.34653C5.97324 0 6.51756 0.429569 6.66089 1.03727L7.68495 5.37931H38.6498C39.0607 5.37931 39.449 5.56557 39.7052 5.88538C39.9613 6.20518 40.0575 6.62377 39.9663 7.0227L35.9699 24.5054C35.8299 25.1175 35.2837 25.5517 34.6534 25.5517H12.4426L13.0769 28.2414H34.6534C35.3991 28.2414 36.0036 28.8435 36.0036 29.5862C36.0036 30.329 35.3991 30.931 34.6534 30.931H31.9892H14.6714H12.0072C11.3805 30.931 10.8362 30.5015 10.6928 29.8938L9.5133 24.8925C9.39364 24.6917 9.32493 24.4573 9.32493 24.2069C9.32493 24.1739 9.32612 24.1411 9.32847 24.1087L4.27682 2.68966H1.35013C0.604481 2.68966 0 2.08755 0 1.34483ZM14.6714 30.931C16.9056 30.931 18.6859 32.7544 18.6859 34.9655C18.6859 37.1767 16.9056 39 14.6714 39C12.4374 39 10.6571 37.1767 10.6571 34.9655C10.6571 32.7544 12.4374 30.931 14.6714 30.931ZM31.9892 30.931C34.2233 30.931 36.0036 32.7544 36.0036 34.9655C36.0036 37.1767 34.2233 39 31.9892 39C29.7551 39 27.9748 37.1767 27.9748 34.9655C27.9748 32.7544 29.7551 30.931 31.9892 30.931ZM11.8082 22.8621H33.5761L36.9577 8.06897H8.3193L11.8082 22.8621ZM31.9892 33.6207C31.2805 33.6207 30.6751 34.2057 30.6751 34.9655C30.6751 35.7253 31.2805 36.3103 31.9892 36.3103C32.6979 36.3103 33.3033 35.7253 33.3033 34.9655C33.3033 34.2057 32.6979 33.6207 31.9892 33.6207ZM13.3573 34.9655C13.3573 34.2057 13.9627 33.6207 14.6714 33.6207C15.3802 33.6207 15.9856 34.2057 15.9856 34.9655C15.9856 35.7253 15.3802 36.3103 14.6714 36.3103C13.9627 36.3103 13.3573 35.7253 13.3573 34.9655Z" fill="#414141"/>
</svg>
