<svg width="31" height="29" viewBox="0 0 31 29" fill="none" xmlns="http://www.w3.org/2000/svg">
<path fill-rule="evenodd" clip-rule="evenodd" d="M0.959961 1C0.959961 0.447715 1.40768 0 1.95996 0H4.91996C5.38414 0 5.7873 0.319423 5.89346 0.771305L6.65195 4H29.5866C29.8909 4 30.1785 4.1385 30.3683 4.37631C30.558 4.61411 30.6292 4.92537 30.5617 5.22201L27.6017 18.222C27.498 18.6771 27.0934 19 26.6266 19H10.1758L10.6456 21H26.6266C27.1789 21 27.6266 21.4477 27.6266 22C27.6266 22.5523 27.1789 23 26.6266 23H24.6533H11.8266H9.85329C9.38911 23 8.98595 22.6806 8.8798 22.2287L8.00615 18.5098C7.91752 18.3605 7.86663 18.1862 7.86663 18C7.86663 17.9755 7.86751 17.9511 7.86925 17.927L4.12766 2H1.95996C1.40768 2 0.959961 1.55228 0.959961 1ZM11.8266 23C13.4814 23 14.8 24.3558 14.8 26C14.8 27.6442 13.4814 29 11.8266 29C10.1719 29 8.85329 27.6442 8.85329 26C8.85329 24.3558 10.1719 23 11.8266 23ZM24.6533 23C26.308 23 27.6266 24.3558 27.6266 26C27.6266 27.6442 26.308 29 24.6533 29C22.9986 29 21.68 27.6442 21.68 26C21.68 24.3558 22.9986 23 24.6533 23ZM9.70591 17H25.8287L28.3333 6H7.12179L9.70591 17ZM24.6533 25C24.1284 25 23.68 25.435 23.68 26C23.68 26.565 24.1284 27 24.6533 27C25.1782 27 25.6266 26.565 25.6266 26C25.6266 25.435 25.1782 25 24.6533 25ZM10.8533 26C10.8533 25.435 11.3017 25 11.8266 25C12.3516 25 12.8 25.435 12.8 26C12.8 26.565 12.3516 27 11.8266 27C11.3017 27 10.8533 26.565 10.8533 26Z" fill="#414141"/>
</svg>
