<svg width="22" height="12" viewBox="0 0 22 12" fill="none" xmlns="http://www.w3.org/2000/svg">
<path d="M22 0.791349C22 0.895245 21.9796 0.998132 21.9399 1.09413C21.9002 1.19014 21.8419 1.27737 21.7685 1.35086L12.0179 11.1009C11.8696 11.2492 11.6684 11.3325 11.4587 11.3325C11.2489 11.3325 11.0477 11.2492 10.8994 11.1009L1.14883 1.35086C1.07535 1.27742 1.01706 1.19023 0.977281 1.09426C0.937503 0.998287 0.917017 0.895422 0.916992 0.791535C0.916968 0.687649 0.937406 0.584776 0.977139 0.488788C1.01687 0.392799 1.07512 0.305576 1.14856 0.2321C1.222 0.158624 1.3092 0.100334 1.40517 0.0605555C1.50114 0.0207777 1.604 0.000289925 1.70789 0.000265131C1.81177 0.00024129 1.91465 0.0206795 2.01064 0.0604124C2.10662 0.100145 2.19385 0.158397 2.26732 0.231838L11.4584 9.42291L20.6495 0.231838C20.7601 0.12114 20.9011 0.0457451 21.0546 0.0151942C21.2081 -0.0153577 21.3672 0.000307327 21.5117 0.0602067C21.6563 0.120106 21.7799 0.221549 21.8668 0.351697C21.9537 0.481845 22.0001 0.634849 22 0.791349Z" fill="#414141"/>
</svg>
