<svg width="22" height="12" viewBox="0 0 22 12" fill="none" xmlns="http://www.w3.org/2000/svg">
<path d="M0.916996 10.5412C0.916948 10.4373 0.937368 10.3344 0.97709 10.2384C1.01681 10.1424 1.07506 10.0551 1.1485 9.98166L10.8991 0.231598C11.0474 0.0833058 11.2486 -4.69959e-07 11.4583 -4.60791e-07C11.6681 -4.51623e-07 11.8692 0.0833058 12.0176 0.231598L21.7682 9.98166C21.8416 10.0551 21.8999 10.1423 21.9397 10.2383C21.9795 10.3342 22 10.4371 22 10.541C22 10.6449 21.9796 10.7477 21.9399 10.8437C21.9001 10.9397 21.8419 11.0269 21.7684 11.1004C21.695 11.1739 21.6078 11.2322 21.5118 11.272C21.4159 11.3117 21.313 11.3322 21.2091 11.3323C21.1052 11.3323 21.0023 11.3118 20.9064 11.2721C20.8104 11.2324 20.7231 11.1741 20.6497 11.1007L11.4586 1.90961L2.26752 11.1007C2.15689 11.2114 2.01592 11.2868 1.86243 11.3173C1.70894 11.3479 1.54984 11.3322 1.40525 11.2723C1.26067 11.2124 1.1371 11.111 1.05019 10.9808C0.963277 10.8507 0.916923 10.6977 0.916996 10.5412Z" fill="#414141"/>
</svg>
