<svg width="24" height="27" viewBox="0 0 24 27" fill="none" xmlns="http://www.w3.org/2000/svg">
<path d="M1 5.2359H7.64M7.64 5.2359V3.22377C7.64 2.35065 8.34782 1.64282 9.22095 1.64282H14.9124C15.7855 1.64282 16.4933 2.35065 16.4933 3.22377V5.2359M7.64 5.2359H16.4933M23.1333 5.2359H16.4933M3.21333 8.11036V19.6081C3.21333 22.3182 3.21333 23.6732 4.07769 24.5153C4.94206 25.3571 6.33322 25.3571 9.1155 25.3571H15.0178C17.8001 25.3571 19.1912 25.3571 20.0557 24.5153C20.92 23.6732 20.92 22.3182 20.92 19.6081V8.11036M7.64 10.9848V19.6081M12.0667 10.9848V19.6081M16.4933 10.9848V19.6081" stroke="#414141" stroke-width="1.58095" stroke-linecap="round" stroke-linejoin="round"/>
</svg>
