<svg width="20" height="20" viewBox="0 0 20 20" fill="none" xmlns="http://www.w3.org/2000/svg">
<path d="M0.35089 17.8542L8.21714 10L0.35089 2.14581C0.123193 1.91042 -0.00280077 1.59515 4.7253e-05 1.26791C0.00289528 0.940668 0.134357 0.627633 0.366117 0.396228C0.597877 0.164824 0.911392 0.0335639 1.23914 0.0307202C1.56688 0.0278766 1.88264 0.153677 2.11839 0.381025L9.98464 8.23521L17.8509 0.381025C17.9662 0.261821 18.1041 0.166739 18.2566 0.101328C18.4091 0.0359172 18.5732 0.00148718 18.7391 4.71237e-05C18.9051 -0.00139293 19.0697 0.0301854 19.2233 0.0929401C19.377 0.155695 19.5165 0.248369 19.6339 0.365555C19.7512 0.482741 19.8441 0.622092 19.9069 0.775476C19.9698 0.928861 20.0014 1.09321 20 1.25893C19.9985 1.42465 19.964 1.58842 19.8985 1.74069C19.833 1.89296 19.7378 2.03068 19.6184 2.14581L11.7521 10L19.6184 17.8542C19.7378 17.9693 19.833 18.107 19.8985 18.2593C19.964 18.4116 19.9985 18.5754 20 18.7411C20.0014 18.9068 19.9698 19.0711 19.9069 19.2245C19.8441 19.3779 19.7512 19.5173 19.6339 19.6344C19.5165 19.7516 19.377 19.8443 19.2233 19.9071C19.0697 19.9698 18.9051 20.0014 18.7391 20C18.5732 19.9985 18.4091 19.9641 18.2566 19.8987C18.1041 19.8333 17.9662 19.7382 17.8509 19.619L9.98464 11.7648L2.11839 19.619C1.88264 19.8463 1.56688 19.9721 1.23914 19.9693C0.911392 19.9664 0.597877 19.8352 0.366117 19.6038C0.134357 19.3724 0.00289528 19.0593 4.7253e-05 18.7321C-0.00280077 18.4048 0.123193 18.0896 0.35089 17.8542Z" fill="#F9F9F9"/>
</svg>
