<svg width="75" height="50" viewBox="0 0 75 50" fill="none" xmlns="http://www.w3.org/2000/svg">
<path d="M10.2193 23.9254V41.6009C10.2193 42.5 10.9649 43.2456 11.864 43.2456H17.3684C18.2675 46.6667 21.3596 49.1886 25.0439 49.1886C28.7281 49.1886 31.8421 46.6667 32.7193 43.2456H53.9254C54.8246 46.6667 57.9167 49.1886 61.6009 49.1886C65.2851 49.1886 68.3991 46.6667 69.2763 43.2456H73.3553C74.2544 43.2456 75 42.5 75 41.6009V26.0965C75 25.7456 74.8904 25.4167 74.693 25.1535L68.9912 17.1053C68.6842 16.6667 68.1798 16.4035 67.6535 16.4035H55.7675V11.2281C55.7675 10.3289 55.0219 9.58333 54.1228 9.58333H23.8158C22.6754 4.12281 17.8289 0 12.0395 0C5.39474 0 0 5.39474 0 12.0395C0 18.0482 4.45176 23.0482 10.2193 23.9254ZM25.0439 45.8991C22.4781 45.8991 20.3947 43.8158 20.3947 41.25C20.3947 38.6842 22.4781 36.6009 25.0439 36.6009C27.6096 36.6009 29.693 38.6842 29.693 41.25C29.693 43.8158 27.5877 45.8991 25.0439 45.8991ZM61.6009 45.8991C59.0351 45.8991 56.9518 43.8158 56.9518 41.25C56.9518 38.6842 59.0351 36.6009 61.6009 36.6009C64.1667 36.6009 66.25 38.6842 66.25 41.25C66.25 43.8158 64.1667 45.8991 61.6009 45.8991ZM71.7105 26.6447V26.9079H62.7632V19.7149H66.7982L71.7105 26.6447ZM59.4737 19.7149V28.5526C59.4737 29.4518 60.2193 30.1974 61.1184 30.1974H71.7105V39.9561H69.4298C68.8158 36.1842 65.5263 33.3114 61.6009 33.3114C59.2982 33.3114 57.2149 34.2982 55.7675 35.8772V19.7149H59.4737ZM52.4781 39.9781H32.8728C32.2588 36.2061 28.9693 33.3333 25.0439 33.3333C21.1184 33.3333 17.8289 36.2061 17.2149 39.9781H13.5088V23.9912C19.1886 23.2895 23.6404 18.6404 24.0351 12.8947H52.4781V39.9781ZM12.0395 3.3114C16.864 3.3114 20.7895 7.23684 20.7895 12.0614C20.7895 16.886 16.864 20.8114 12.0395 20.8114C7.21491 20.8114 3.28947 16.886 3.28947 12.0614C3.28947 7.23684 7.21491 3.3114 12.0395 3.3114Z" fill="#414141"/>
<path d="M9.8465 15.7895C10.1535 16.0965 10.5702 16.2719 11.0088 16.2719C11.4474 16.2719 11.864 16.0965 12.1711 15.7895L17.3246 10.6359C17.9605 9.99998 17.9605 8.94735 17.3246 8.31139C16.6886 7.67542 15.636 7.67542 15 8.31139L11.0088 12.3026L9.07895 10.3728C8.44299 9.73683 7.39036 9.73683 6.75439 10.3728C6.11843 11.0088 6.11843 12.0614 6.75439 12.6973L9.8465 15.7895Z" fill="#414141"/>
</svg>
