<svg width="48" height="49" viewBox="0 0 48 49" fill="none" xmlns="http://www.w3.org/2000/svg">
<path d="M18.5751 14.4573H16.067C14.7294 14.4573 13.5589 15.6313 13.5589 16.973C13.5589 18.3147 14.7294 19.4887 16.067 19.4887C17.4046 19.4887 18.5751 20.6627 18.5751 22.0044C18.5751 23.3461 17.4046 24.5201 16.067 24.5201H13.5589" stroke="#414141" stroke-width="1.92108" stroke-miterlimit="10" stroke-linecap="round" stroke-linejoin="round"/>
<path d="M23.5912 24.5201V16.973C23.5912 15.6313 24.7617 14.4573 26.0993 14.4573C27.437 14.4573 28.6074 15.6313 28.6074 16.973V24.5201" stroke="#414141" stroke-width="1.92108" stroke-miterlimit="10" stroke-linecap="round" stroke-linejoin="round"/>
<path d="M23.5912 19.4888H28.6074" stroke="#414141" stroke-width="1.92108" stroke-miterlimit="10" stroke-linecap="round" stroke-linejoin="round"/>
<path d="M33.6236 14.4573V24.5201H38.6397" stroke="#414141" stroke-width="1.92108" stroke-miterlimit="10" stroke-linecap="round" stroke-linejoin="round"/>
<path d="M47 14.4573H43.6559V24.5201H47" stroke="#414141" stroke-width="1.92108" stroke-miterlimit="10" stroke-linecap="round" stroke-linejoin="round"/>
<path d="M47 19.4888H43.6559" stroke="#414141" stroke-width="1.92108" stroke-miterlimit="10" stroke-linecap="round" stroke-linejoin="round"/>
<path d="M40.3118 31.2286L11.8869 48L20.2471 31.2286H1.85452L15.231 1.04016H41.9838L36.9677 9.42585" stroke="#414141" stroke-width="1.92108" stroke-miterlimit="10" stroke-linecap="round" stroke-linejoin="round"/>
</svg>
