<svg width="40" height="36" viewBox="0 0 40 36" fill="none" xmlns="http://www.w3.org/2000/svg">
<path d="M20 36C19.7465 36 19.4973 35.9342 19.2761 35.8088C18.489 35.3625 0 24.7242 0 11.25C0.000791989 8.88932 0.734753 6.58868 2.09802 4.67359C3.4613 2.75852 5.38484 1.32599 7.59648 0.578717C9.80811 -0.168554 12.1959 -0.192726 14.4218 0.509621C16.6478 1.21197 18.5992 2.60528 20 4.49237C21.4009 2.60528 23.3523 1.21197 25.5783 0.509621C27.8042 -0.192726 30.1919 -0.168554 32.4036 0.578717C34.6152 1.32599 36.5387 2.75852 37.902 4.67359C39.2653 6.58868 39.9993 8.88932 40 11.25C40 16.9809 36.7197 22.876 30.2503 28.7712C27.3159 31.4345 24.1245 33.7922 20.724 35.8088C20.5027 35.9342 20.2536 36 20 36ZM11.1111 2.99999C8.95085 3.00247 6.87975 3.87246 5.35221 5.41909C3.82465 6.96574 2.96541 9.06273 2.96297 11.25C2.96297 21.6085 16.6631 30.6972 19.9994 32.7564C23.3348 30.6948 37.0371 21.5929 37.0371 11.25C37.0368 9.34314 36.3841 7.49526 35.1902 6.02053C33.9962 4.54581 32.3346 3.53527 30.488 3.16073C28.6414 2.7862 26.7237 3.07079 25.0608 3.96609C23.3981 4.86141 22.0928 6.3122 21.367 8.07179C21.2543 8.3448 21.0645 8.57796 20.8213 8.74195C20.578 8.90595 20.2922 8.99346 20 8.99346C19.7078 8.99346 19.422 8.90595 19.1788 8.74195C18.9355 8.57796 18.7457 8.3448 18.6329 8.07179C18.0153 6.56793 16.9709 5.28333 15.6319 4.38054C14.2931 3.47774 12.7198 2.9973 11.1111 2.99999Z" fill="#414141"/>
</svg>
