<svg width="29" height="25" viewBox="0 0 29 25" fill="none" xmlns="http://www.w3.org/2000/svg">
<path d="M14.7733 25C14.5982 25 14.4261 24.9543 14.2733 24.8672C13.7297 24.5573 0.959961 17.1696 0.959961 7.8125C0.960508 6.17314 1.46743 4.57547 2.40899 3.24555C3.35056 1.91564 4.67909 0.920825 6.20659 0.401887C7.73409 -0.117051 9.38322 -0.133837 10.9206 0.353904C12.458 0.841646 13.8058 1.80922 14.7733 3.1197C15.7408 1.80922 17.0886 0.841646 18.626 0.353904C20.1634 -0.133837 21.8125 -0.117051 23.34 0.401887C24.8675 0.920825 26.196 1.91564 27.1376 3.24555C28.0792 4.57547 28.5861 6.17314 28.5866 7.8125C28.5866 11.7923 26.321 15.8861 21.8528 19.98C19.8261 21.8295 17.6219 23.4668 15.2733 24.8672C15.1205 24.9543 14.9484 25 14.7733 25ZM8.63404 2.08333C7.14201 2.08505 5.71157 2.68921 4.65655 3.76326C3.60152 4.83732 3.00807 6.29356 3.00638 7.8125C3.00638 15.0059 12.4686 21.3175 14.7729 22.7475C17.0765 21.3158 26.5402 14.9951 26.5402 7.8125C26.54 6.48829 26.0892 5.20504 25.2646 4.18092C24.44 3.15681 23.2924 2.45505 22.017 2.19495C20.7416 1.93486 19.4171 2.13249 18.2686 2.75423C17.1202 3.37598 16.2187 4.38347 15.7174 5.60541C15.6396 5.795 15.5085 5.95692 15.3405 6.0708C15.1725 6.18469 14.9751 6.24546 14.7733 6.24546C14.5715 6.24546 14.3741 6.18469 14.2061 6.0708C14.0381 5.95692 13.907 5.795 13.8291 5.60541C13.4025 4.56106 12.6812 3.66898 11.7564 3.04204C10.8317 2.4151 9.74507 2.08146 8.63404 2.08333Z" fill="#414141"/>
</svg>
