<svg width="29" height="26" viewBox="0 0 29 26" fill="none" xmlns="http://www.w3.org/2000/svg">
<path d="M14.5 25.5512C14.323 25.5512 14.149 25.5059 13.9946 25.4194C13.4452 25.1117 0.538452 17.7771 0.538452 8.48712C0.539005 6.85954 1.05136 5.27333 2.00303 3.95296C2.9547 2.6326 4.29748 1.64493 5.84137 1.12971C7.38527 0.614502 9.05208 0.597837 10.606 1.08208C12.1598 1.56632 13.5221 2.52694 14.5 3.82801C15.4779 2.52694 16.8401 1.56632 18.394 1.08208C19.9479 0.597837 21.6147 0.614502 23.1586 1.12971C24.7025 1.64493 26.0453 2.6326 26.9969 3.95296C27.9486 5.27333 28.461 6.85954 28.4615 8.48712C28.4615 12.4384 26.1716 16.5027 21.6555 20.5673C19.607 22.4035 17.3791 24.0291 15.0053 25.4194C14.851 25.5059 14.6769 25.5512 14.5 25.5512ZM8.29486 2.79909C6.78682 2.80079 5.34104 3.40062 4.2747 4.46696C3.20835 5.5333 2.60853 6.97909 2.60683 8.48712C2.60683 15.6288 12.1705 21.8952 14.4996 23.3149C16.8279 21.8935 26.3932 15.6181 26.3932 8.48712C26.3929 7.17242 25.9373 5.89838 25.1039 4.88162C24.2704 3.86486 23.1105 3.16814 21.8214 2.90991C20.5324 2.65168 19.1936 2.84789 18.0328 3.46517C16.8721 4.08246 15.9609 5.08272 15.4543 6.29588C15.3756 6.48411 15.243 6.64486 15.0732 6.75793C14.9034 6.871 14.704 6.93133 14.5 6.93133C14.296 6.93133 14.0965 6.871 13.9267 6.75793C13.7569 6.64486 13.6244 6.48411 13.5457 6.29588C13.1145 5.25902 12.3854 4.37335 11.4508 3.75091C10.5161 3.12848 9.41782 2.79723 8.29486 2.79909Z" fill="#414141"/>
</svg>
