<svg width="229" height="64" viewBox="0 0 229 64" fill="none" xmlns="http://www.w3.org/2000/svg">
<path d="M229 0H0V64H229V0Z" fill="#F9F9F9"/>
<path d="M54.0552 54.9939C54.6772 54.6492 55.0635 53.9932 55.0635 53.2816C55.0636 52.3709 54.4289 51.6551 53.6414 51.4179C52.0026 50.9242 50.5752 52.7507 51.3956 54.2312C51.9121 55.1629 53.1231 55.5105 54.0552 54.9939ZM52.6748 53.284C52.6748 53.0024 52.9552 52.7902 53.2258 52.8678C53.4072 52.9198 53.5387 53.0929 53.5387 53.2817C53.5387 53.4392 53.4534 53.5843 53.3161 53.6604C53.0422 53.8121 52.6749 53.6124 52.6748 53.284Z" fill="#FF3F3F"/>
<path d="M55.5552 49.7644C56.1769 49.4197 56.5633 48.7635 56.5633 48.0521C56.5633 46.5927 54.9348 45.6344 53.6583 46.3421C53.0364 46.6868 52.6501 47.3428 52.6501 48.0544C52.6501 49.521 54.2774 50.4727 55.5552 49.7644ZM54.2305 48.2616C54.0422 47.9364 54.3698 47.5362 54.7258 47.6381C54.9076 47.6901 55.0388 47.863 55.0388 48.052C55.0388 48.2094 54.9535 48.3546 54.8163 48.4307C54.6025 48.5492 54.3425 48.455 54.2305 48.2616Z" fill="#FF3F3F"/>
<path d="M59.5087 51.9714C60.4395 51.4556 60.7872 50.2423 60.2714 49.3118C60.0132 48.8459 59.5814 48.526 59.0975 48.3871C58.6137 48.2484 58.078 48.2907 57.6119 48.549C56.6813 49.0648 56.3336 50.2785 56.8491 51.2086C57.3721 52.1521 58.5652 52.4943 59.5087 51.9714ZM58.1284 50.2615C58.1284 49.9783 58.4067 49.7671 58.6793 49.8453C58.8619 49.8976 58.9923 50.0691 58.9923 50.2592C58.9923 50.4167 58.907 50.5618 58.7698 50.6379C58.4894 50.7933 58.1285 50.5818 58.1284 50.2615Z" fill="#FF3F3F"/>
<path d="M61.0086 46.7419C61.6304 46.3972 62.0168 45.741 62.0168 45.0296C62.0168 43.573 60.386 42.6132 59.1118 43.3196C58.49 43.6643 58.1037 44.3203 58.1037 45.0319C58.1037 46.4982 59.7309 47.45 61.0086 46.7419ZM59.6842 45.239C59.6491 45.1784 59.6284 45.1082 59.6284 45.0318C59.6284 44.8743 59.7137 44.7292 59.851 44.6531C60.1326 44.497 60.4921 44.7069 60.4922 45.0296C60.4922 45.4681 59.9013 45.6125 59.6842 45.239Z" fill="#FF3F3F"/>
<path d="M65.9704 47.2365C65.9705 45.7701 64.3434 44.8183 63.0655 45.5265C62.4436 45.8712 62.0572 46.5274 62.0572 47.2388C62.0572 48.1022 62.6463 48.8807 63.4744 49.1182C64.7071 49.4719 65.9704 48.5148 65.9704 47.2365ZM63.8949 47.6528C63.7126 47.6006 63.582 47.4286 63.582 47.239C63.5819 46.7987 64.1733 46.6569 64.3898 47.0294C64.425 47.09 64.4456 47.1602 64.4456 47.2366C64.4457 47.5198 64.1675 47.7309 63.8949 47.6528Z" fill="#FF3F3F"/>
<path d="M67.4705 42.007C67.4705 40.5406 65.8432 39.5887 64.5654 40.297C63.9436 40.6417 63.5572 41.2977 63.5572 42.0092C63.5572 42.8731 64.1459 43.6511 64.9745 43.8887C66.2074 44.2424 67.4705 43.2859 67.4705 42.007ZM65.3949 42.4231C65.2125 42.3708 65.0818 42.199 65.0818 42.0091C65.0818 41.8517 65.1671 41.7065 65.3044 41.6305C65.5125 41.5151 65.7759 41.5906 65.8912 41.7988C66.0731 42.127 65.7557 42.5265 65.3949 42.4231Z" fill="#FF3F3F"/>
<path d="M71.424 44.214C71.424 43.3501 70.8354 42.5722 70.0067 42.3346C68.7746 41.9811 67.5109 42.9388 67.5109 44.2163C67.5109 45.0801 68.0995 45.8581 68.9281 46.0957C70.1606 46.4493 71.424 45.4914 71.424 44.214ZM69.0354 44.2164C69.0354 43.9324 69.3129 43.7232 69.5851 43.8041C69.7578 43.8555 69.8992 44.0097 69.8992 44.214C69.8993 44.7576 69.0355 44.7751 69.0354 44.2164Z" fill="#FF3F3F"/>
<path d="M71.9156 40.6968C72.5375 40.3521 72.9239 39.696 72.9239 38.9845C72.9239 37.5258 71.2947 36.5673 70.0188 37.2745C69.0894 37.7897 68.7412 39.0051 69.256 39.9341C69.779 40.8776 70.972 41.2198 71.9156 40.6968ZM70.5897 39.1949C70.4084 38.8675 70.7258 38.4674 71.0863 38.5707C71.269 38.623 71.3992 38.7942 71.3992 38.9845C71.3992 39.142 71.3139 39.2872 71.1766 39.3633C70.9684 39.4787 70.7051 39.403 70.5897 39.1949Z" fill="#FF3F3F"/>
<path d="M52.2534 21.6017L53.2382 20.6169C53.536 20.3191 53.536 19.8365 53.2382 19.5388C52.9404 19.241 52.4579 19.241 52.1601 19.5388L51.1753 20.5236C50.8813 20.8176 50.8815 21.3079 51.1753 21.6017C51.4731 21.8994 51.9558 21.8994 52.2534 21.6017Z" fill="#FF3F3F"/>
<path d="M63.136 32.4842L64.1208 31.4994C64.4186 31.2017 64.4186 30.7191 64.1208 30.4213C63.823 30.1235 63.3405 30.1235 63.0427 30.4213L62.0579 31.4061C61.7677 31.6962 61.763 32.1894 62.0579 32.4842C62.3556 32.782 62.8382 32.782 63.136 32.4842Z" fill="#FF3F3F"/>
<path d="M58.6183 28.5389C59.0383 28.5107 59.3559 28.1482 59.3278 27.7273C59.2996 27.3071 58.9361 26.9895 58.5162 27.0178C58.0279 27.0505 57.537 26.8584 57.1693 26.4904C56.8014 26.1226 56.6093 25.6313 56.642 25.1436C56.6704 24.7228 56.3525 24.3601 55.9325 24.3319C55.3862 24.2952 55.1138 24.7703 55.1138 25.2512C55.1138 26.1065 55.4635 26.9412 56.0912 27.5687C56.7698 28.2475 57.6911 28.6012 58.6183 28.5389Z" fill="#FF3F3F"/>
<path d="M53.6361 57.4559C53.6413 57.453 53.6466 57.4499 53.6519 57.4469L76.0741 45.0197C76.0795 45.0168 76.0849 45.014 76.0903 45.011C77.1456 44.426 77.8011 43.3127 77.8011 42.1052C77.8011 41.5457 77.6571 40.99 77.3845 40.4983C77.3845 40.4983 73.712 33.8721 73.7109 33.87C73.626 33.7169 73.4808 33.5866 73.3141 33.5223L69.1618 31.9157L69.2975 28.2745C69.3092 27.9629 69.1307 27.6769 68.8466 27.55L64.4651 25.5923L63.5307 20.7334C63.4718 20.427 63.2322 20.1876 62.926 20.1287L58.0672 19.1943L56.1095 14.8127C55.9825 14.5287 55.6958 14.3502 55.385 14.3618L51.7438 14.4975L50.1371 10.3451L50.1352 10.3413C50.0698 10.1808 49.9503 10.0399 49.7965 9.95412C49.7965 9.95412 43.1781 6.27091 43.1746 6.26898C41.5915 5.38794 39.5387 5.97608 38.6598 7.55542L26.1758 29.988C25.2957 31.5694 25.8822 33.6234 27.4622 34.5028C27.4622 34.5028 34.117 38.2047 34.1336 38.2124C34.2429 38.2714 34.3657 38.3045 34.4929 38.3049L36.6643 38.3119L37.4281 39.7562C37.5349 39.9582 37.7268 40.1017 37.9509 40.1471L39.704 40.5019L40.4588 42.7238C40.535 42.9481 40.7111 43.1242 40.9355 43.2005L43.1574 43.9553L43.5121 45.7084C43.5574 45.9324 43.7008 46.1243 43.903 46.2312L45.3473 46.995L45.3543 49.1593L45.354 49.1645C45.354 49.2917 45.3881 49.4219 45.4496 49.5334C45.4496 49.5334 49.1216 56.1588 49.1233 56.1616C50 57.7434 52.0535 58.3331 53.6361 57.4559ZM38.5798 10.8357L39.622 8.96301L44.9006 11.9005L44.0385 13.4498L40.4218 11.437L40.2418 11.7607L38.5798 10.8357ZM36.7965 14.0403L37.8384 12.1681L39.5004 13.0931L39.3205 13.4167L42.9371 15.4294L42.2554 16.6545L38.6387 14.6417L38.4586 14.9653L36.7965 14.0403ZM36.055 15.3725L37.717 16.2976L37.537 16.6212L41.1537 18.634L40.2917 20.1826L35.013 17.2449L36.055 15.3725ZM33.2298 20.4492L34.2717 18.5771L39.5504 21.5147L38.6886 23.0633L35.072 21.0505L34.892 21.3741L33.2298 20.4492ZM31.4461 23.6543L32.4883 21.7816L34.1504 22.7066L33.9704 23.0302L37.587 25.043L36.9053 26.2681L33.2887 24.2553L33.1083 24.5794L31.4461 23.6543ZM29.6628 26.8588L30.7047 24.9867L32.3668 25.9116L32.1871 26.2346L35.8037 28.2474L35.122 29.4725L31.5054 27.4597L31.325 27.7839L29.6628 26.8588ZM28.9214 28.1911L30.5835 29.1161L30.4038 29.439L34.0204 31.4518L33.1583 33.0011L27.8795 30.0635L28.9214 28.1911ZM28.2039 33.1705C27.6348 32.8538 27.2814 32.252 27.2814 31.5999C27.2814 31.5592 27.2831 31.5185 27.2859 31.4779L33.0828 34.7039C33.4508 34.9086 33.9149 34.7764 34.1197 34.4084C34.1197 34.4084 46.5779 12.022 46.6036 11.9758C46.7988 11.6252 46.6788 11.1451 46.3082 10.9389L40.5129 7.71376C40.6794 7.59414 40.8659 7.50135 41.0688 7.44353C41.5299 7.31222 42.0145 7.36822 42.4333 7.60136L48.389 10.9156L34.1595 36.4849L28.2039 33.1705ZM35.7381 36.7844L43.4535 22.9203L49.3017 12.4114L50.3793 15.1964L36.7059 36.7876L35.7381 36.7844ZM44.9352 45.0523L44.6535 43.6602L54.9142 34.7997C55.2257 34.5306 55.2622 34.0364 54.9928 33.7244C54.7177 33.4057 54.2363 33.3704 53.9176 33.6457L43.6498 42.5124L41.7819 41.8778L41.1473 40.0098L43.4729 37.3165C43.7481 36.9978 43.7126 36.5165 43.3941 36.2413C43.0754 35.9661 42.5941 36.0014 42.3189 36.3201L39.9992 39.0063L38.6073 38.7245L38.0052 37.5858L51.6583 16.0266L54.9274 15.9049L56.6395 19.7367C56.6395 19.7367 44.2953 34.0314 44.2921 34.035C44.023 34.3467 44.0594 34.8414 44.3708 35.1102C44.6854 35.3817 45.1744 35.346 45.446 35.0316L57.8221 20.6999L62.1311 21.5285L62.9598 25.8375L56.2107 31.6656C55.8962 31.9371 55.8604 32.4263 56.1319 32.7408C56.401 33.0527 56.8919 33.092 57.2073 32.8195L63.9232 27.02L67.7549 28.7321L67.6332 32.0012L46.0739 45.6544L44.9352 45.0523ZM46.8721 46.9538L68.4631 33.2802L71.2542 34.3601L46.875 47.8718L46.8721 46.9538ZM50.457 55.4226L47.1529 49.4611L72.747 35.2761L76.0509 41.2376C76.1984 41.5037 76.2763 41.8038 76.2763 42.1054C76.2763 42.7538 75.9272 43.3519 75.3642 43.6702C75.3596 43.6726 75.355 43.6751 75.3504 43.6776L52.8972 56.1219C52.8926 56.1244 52.8881 56.1271 52.8835 56.1297C52.0441 56.6132 50.9159 56.2598 50.457 55.4226Z" fill="#FF3F3F"/>
<path d="M102.098 36.1875V40.5312C101.936 40.7448 101.684 40.9791 101.34 41.2344C101.001 41.4844 100.551 41.7005 99.9882 41.8828C99.4257 42.0651 98.7252 42.1562 97.8867 42.1562C97.1731 42.1562 96.5195 42.0364 95.9257 41.7969C95.332 41.5521 94.8189 41.1953 94.3867 40.7265C93.9596 40.2578 93.6288 39.6875 93.3945 39.0156C93.1601 38.3385 93.0429 37.5677 93.0429 36.7031V35.914C93.0429 35.0547 93.1497 34.289 93.3632 33.6172C93.582 32.9401 93.8945 32.3672 94.3007 31.8984C94.707 31.4297 95.1966 31.0755 95.7695 30.8359C96.3476 30.5911 97.0012 30.4687 97.7304 30.4687C98.6627 30.4687 99.4335 30.625 100.043 30.9375C100.657 31.2448 101.131 31.6719 101.465 32.2187C101.798 32.7656 102.009 33.3906 102.098 34.0937H100.176C100.113 33.6979 99.9908 33.3437 99.8085 33.0312C99.6314 32.7187 99.3762 32.4739 99.0429 32.2969C98.7148 32.1146 98.2877 32.0234 97.7617 32.0234C97.3085 32.0234 96.9101 32.1094 96.5663 32.2812C96.2226 32.4531 95.9361 32.7057 95.707 33.039C95.483 33.3724 95.3137 33.7786 95.1992 34.2578C95.0846 34.737 95.0273 35.2838 95.0273 35.8984V36.7031C95.0273 37.3281 95.0924 37.8828 95.2226 38.3672C95.358 38.8515 95.5507 39.2604 95.8007 39.5937C96.0559 39.9271 96.3658 40.1797 96.7304 40.3515C97.095 40.5182 97.5064 40.6015 97.9648 40.6015C98.4127 40.6015 98.7799 40.5651 99.0663 40.4922C99.3528 40.414 99.5794 40.3229 99.746 40.2187C99.9179 40.1094 100.051 40.0052 100.144 39.9062V37.6484H97.7773V36.1875H102.098ZM108.848 40.3047V36.2734C108.848 35.9713 108.793 35.7109 108.684 35.4922C108.574 35.2734 108.407 35.1041 108.184 34.9844C107.965 34.8646 107.689 34.8047 107.355 34.8047C107.048 34.8047 106.782 34.8567 106.559 34.9609C106.335 35.0651 106.16 35.2057 106.035 35.3828C105.91 35.5599 105.848 35.7604 105.848 35.9844H103.973C103.973 35.651 104.053 35.3281 104.215 35.0156C104.376 34.7031 104.611 34.4245 104.918 34.1797C105.225 33.9349 105.592 33.7422 106.019 33.6015C106.447 33.4609 106.926 33.3906 107.457 33.3906C108.092 33.3906 108.655 33.4974 109.144 33.7109C109.639 33.9245 110.027 34.2474 110.309 34.6797C110.595 35.1067 110.738 35.6432 110.738 36.289V40.0469C110.738 40.4323 110.764 40.7786 110.816 41.0859C110.874 41.388 110.954 41.651 111.059 41.875V42H109.129C109.04 41.7969 108.97 41.539 108.918 41.2265C108.871 40.9088 108.848 40.6015 108.848 40.3047ZM109.121 36.8594L109.137 38.0234H107.785C107.436 38.0234 107.129 38.0573 106.863 38.125C106.598 38.1875 106.376 38.2812 106.199 38.4062C106.022 38.5312 105.889 38.6823 105.801 38.8594C105.712 39.0364 105.668 39.237 105.668 39.4609C105.668 39.6849 105.72 39.8906 105.824 40.0781C105.928 40.2604 106.079 40.4036 106.277 40.5078C106.48 40.612 106.725 40.664 107.012 40.664C107.397 40.664 107.733 40.5859 108.019 40.4297C108.311 40.2682 108.54 40.0729 108.707 39.8437C108.874 39.6094 108.962 39.388 108.973 39.1797L109.582 40.0156C109.519 40.2291 109.413 40.4583 109.262 40.7031C109.111 40.9479 108.913 41.1823 108.668 41.4062C108.428 41.625 108.139 41.8047 107.801 41.9453C107.467 42.0859 107.082 42.1562 106.644 42.1562C106.092 42.1562 105.6 42.0469 105.168 41.8281C104.736 41.6041 104.397 41.3047 104.152 40.9297C103.907 40.5495 103.785 40.1198 103.785 39.6406C103.785 39.1927 103.868 38.7969 104.035 38.4531C104.207 38.1041 104.457 37.8125 104.785 37.5781C105.118 37.3437 105.525 37.1666 106.004 37.0469C106.483 36.9219 107.03 36.8594 107.644 36.8594H109.121ZM114.598 35.1562V42H112.715V33.5469H114.512L114.598 35.1562ZM117.184 33.4922L117.168 35.2422C117.053 35.2213 116.928 35.2057 116.793 35.1953C116.663 35.1849 116.532 35.1797 116.402 35.1797C116.079 35.1797 115.796 35.2265 115.551 35.3203C115.306 35.4088 115.1 35.539 114.934 35.7109C114.772 35.8776 114.647 36.0807 114.559 36.3203C114.47 36.5599 114.418 36.8281 114.402 37.125L113.973 37.1562C113.973 36.625 114.025 36.1328 114.129 35.6797C114.233 35.2265 114.389 34.8281 114.598 34.4844C114.811 34.1406 115.077 33.8724 115.394 33.6797C115.717 33.487 116.09 33.3906 116.512 33.3906C116.626 33.3906 116.749 33.401 116.879 33.4219C117.014 33.4427 117.116 33.4661 117.184 33.4922ZM120.246 35.2656V42H118.363V33.5469H120.137L120.246 35.2656ZM119.941 37.4609L119.301 37.4531C119.301 36.8698 119.374 36.3307 119.519 35.8359C119.665 35.3411 119.879 34.9114 120.16 34.5469C120.441 34.1771 120.79 33.8932 121.207 33.6953C121.629 33.4922 122.116 33.3906 122.668 33.3906C123.053 33.3906 123.405 33.4479 123.723 33.5625C124.046 33.6719 124.324 33.8463 124.559 34.0859C124.798 34.3255 124.98 34.6328 125.105 35.0078C125.236 35.3828 125.301 35.8359 125.301 36.3672V42H123.418V36.5312C123.418 36.1198 123.355 35.7969 123.23 35.5625C123.111 35.3281 122.936 35.1614 122.707 35.0625C122.483 34.9583 122.215 34.9062 121.902 34.9062C121.548 34.9062 121.246 34.9739 120.996 35.1094C120.751 35.2448 120.551 35.4297 120.394 35.664C120.238 35.8984 120.124 36.1692 120.051 36.4765C119.978 36.7838 119.941 37.112 119.941 37.4609ZM125.184 36.9609L124.301 37.1562C124.301 36.6458 124.371 36.164 124.512 35.7109C124.657 35.2526 124.868 34.8515 125.144 34.5078C125.426 34.1588 125.772 33.8854 126.184 33.6875C126.595 33.4896 127.066 33.3906 127.598 33.3906C128.03 33.3906 128.415 33.4505 128.754 33.5703C129.098 33.6849 129.389 33.8672 129.629 34.1172C129.868 34.3672 130.051 34.6927 130.176 35.0937C130.301 35.4896 130.363 35.9687 130.363 36.5312V42H128.473V36.5234C128.473 36.0963 128.41 35.7656 128.285 35.5312C128.165 35.2969 127.993 35.1354 127.769 35.0469C127.546 34.9531 127.277 34.9062 126.965 34.9062C126.673 34.9062 126.415 34.9609 126.191 35.0703C125.973 35.1745 125.788 35.3229 125.637 35.5156C125.486 35.7031 125.371 35.9192 125.293 36.164C125.22 36.4088 125.184 36.6745 125.184 36.9609ZM131.941 37.8672V37.6875C131.941 37.0781 132.03 36.513 132.207 35.9922C132.384 35.4661 132.639 35.0104 132.973 34.625C133.311 34.2344 133.723 33.9323 134.207 33.7187C134.697 33.5 135.249 33.3906 135.863 33.3906C136.483 33.3906 137.035 33.5 137.519 33.7187C138.009 33.9323 138.423 34.2344 138.762 34.625C139.1 35.0104 139.358 35.4661 139.535 35.9922C139.712 36.513 139.801 37.0781 139.801 37.6875V37.8672C139.801 38.4765 139.712 39.0416 139.535 39.5625C139.358 40.0833 139.1 40.539 138.762 40.9297C138.423 41.3151 138.012 41.6172 137.527 41.8359C137.043 42.0495 136.493 42.1562 135.879 42.1562C135.259 42.1562 134.704 42.0495 134.215 41.8359C133.73 41.6172 133.319 41.3151 132.98 40.9297C132.642 40.539 132.384 40.0833 132.207 39.5625C132.03 39.0416 131.941 38.4765 131.941 37.8672ZM133.824 37.6875V37.8672C133.824 38.2474 133.863 38.6067 133.941 38.9453C134.019 39.2838 134.142 39.5807 134.309 39.8359C134.475 40.0911 134.689 40.2916 134.949 40.4375C135.21 40.5833 135.519 40.6562 135.879 40.6562C136.228 40.6562 136.53 40.5833 136.785 40.4375C137.046 40.2916 137.259 40.0911 137.426 39.8359C137.592 39.5807 137.715 39.2838 137.793 38.9453C137.876 38.6067 137.918 38.2474 137.918 37.8672V37.6875C137.918 37.3125 137.876 36.9583 137.793 36.625C137.715 36.2864 137.59 35.987 137.418 35.7265C137.251 35.4661 137.038 35.263 136.777 35.1172C136.522 34.9661 136.217 34.8906 135.863 34.8906C135.509 34.8906 135.202 34.9661 134.941 35.1172C134.686 35.263 134.475 35.4661 134.309 35.7265C134.142 35.987 134.019 36.2864 133.941 36.625C133.863 36.9583 133.824 37.3125 133.824 37.6875ZM143.246 35.3515V42H141.363V33.5469H143.137L143.246 35.3515ZM142.91 37.4609L142.301 37.4531C142.306 36.8541 142.389 36.3047 142.551 35.8047C142.717 35.3047 142.947 34.875 143.238 34.5156C143.535 34.1562 143.889 33.8802 144.301 33.6875C144.712 33.4896 145.171 33.3906 145.676 33.3906C146.082 33.3906 146.449 33.4479 146.777 33.5625C147.111 33.6719 147.394 33.8515 147.629 34.1015C147.868 34.3515 148.051 34.6771 148.176 35.0781C148.301 35.4739 148.363 35.9609 148.363 36.539V42H146.473V36.5312C146.473 36.125 146.413 35.8047 146.293 35.5703C146.178 35.3307 146.009 35.1614 145.785 35.0625C145.566 34.9583 145.293 34.9062 144.965 34.9062C144.642 34.9062 144.353 34.9739 144.098 35.1094C143.842 35.2448 143.626 35.4297 143.449 35.664C143.277 35.8984 143.144 36.1692 143.051 36.4765C142.957 36.7838 142.91 37.112 142.91 37.4609ZM152.301 33.5469V42H150.41V33.5469H152.301ZM150.285 31.3281C150.285 31.0416 150.379 30.8047 150.566 30.6172C150.759 30.4245 151.025 30.3281 151.363 30.3281C151.697 30.3281 151.96 30.4245 152.152 30.6172C152.345 30.8047 152.441 31.0416 152.441 31.3281C152.441 31.6094 152.345 31.8437 152.152 32.0312C151.96 32.2187 151.697 32.3125 151.363 32.3125C151.025 32.3125 150.759 32.2187 150.566 32.0312C150.379 31.8437 150.285 31.6094 150.285 31.3281ZM159.129 40.3047V36.2734C159.129 35.9713 159.074 35.7109 158.965 35.4922C158.855 35.2734 158.689 35.1041 158.465 34.9844C158.246 34.8646 157.97 34.8047 157.637 34.8047C157.329 34.8047 157.064 34.8567 156.84 34.9609C156.616 35.0651 156.441 35.2057 156.316 35.3828C156.191 35.5599 156.129 35.7604 156.129 35.9844H154.254C154.254 35.651 154.335 35.3281 154.496 35.0156C154.657 34.7031 154.892 34.4245 155.199 34.1797C155.506 33.9349 155.874 33.7422 156.301 33.6015C156.728 33.4609 157.207 33.3906 157.738 33.3906C158.374 33.3906 158.936 33.4974 159.426 33.7109C159.921 33.9245 160.309 34.2474 160.59 34.6797C160.876 35.1067 161.019 35.6432 161.019 36.289V40.0469C161.019 40.4323 161.046 40.7786 161.098 41.0859C161.155 41.388 161.236 41.651 161.34 41.875V42H159.41C159.322 41.7969 159.251 41.539 159.199 41.2265C159.152 40.9088 159.129 40.6015 159.129 40.3047ZM159.402 36.8594L159.418 38.0234H158.066C157.717 38.0234 157.41 38.0573 157.144 38.125C156.879 38.1875 156.657 38.2812 156.48 38.4062C156.303 38.5312 156.171 38.6823 156.082 38.8594C155.993 39.0364 155.949 39.237 155.949 39.4609C155.949 39.6849 156.001 39.8906 156.105 40.0781C156.21 40.2604 156.361 40.4036 156.559 40.5078C156.762 40.612 157.006 40.664 157.293 40.664C157.678 40.664 158.014 40.5859 158.301 40.4297C158.592 40.2682 158.822 40.0729 158.988 39.8437C159.155 39.6094 159.243 39.388 159.254 39.1797L159.863 40.0156C159.801 40.2291 159.694 40.4583 159.543 40.7031C159.392 40.9479 159.194 41.1823 158.949 41.4062C158.71 41.625 158.421 41.8047 158.082 41.9453C157.749 42.0859 157.363 42.1562 156.926 42.1562C156.374 42.1562 155.881 42.0469 155.449 41.8281C155.017 41.6041 154.678 41.3047 154.434 40.9297C154.189 40.5495 154.066 40.1198 154.066 39.6406C154.066 39.1927 154.15 38.7969 154.316 38.4531C154.488 38.1041 154.738 37.8125 155.066 37.5781C155.4 37.3437 155.806 37.1666 156.285 37.0469C156.764 36.9219 157.311 36.8594 157.926 36.8594H159.402ZM166.777 36.3906V37.8906H162.644V36.3906H166.777ZM173.168 39.7109C173.168 39.5234 173.121 39.3541 173.027 39.2031C172.934 39.0469 172.754 38.9062 172.488 38.7812C172.228 38.6562 171.842 38.5416 171.332 38.4375C170.884 38.3385 170.473 38.2213 170.098 38.0859C169.728 37.9453 169.41 37.776 169.144 37.5781C168.879 37.3802 168.673 37.1458 168.527 36.875C168.381 36.6041 168.309 36.2916 168.309 35.9375C168.309 35.5937 168.384 35.2682 168.535 34.9609C168.686 34.6536 168.902 34.3828 169.184 34.1484C169.465 33.914 169.806 33.7291 170.207 33.5937C170.613 33.4583 171.066 33.3906 171.566 33.3906C172.275 33.3906 172.881 33.5104 173.387 33.75C173.897 33.9844 174.288 34.3047 174.559 34.7109C174.829 35.112 174.965 35.5651 174.965 36.0703H173.082C173.082 35.8463 173.025 35.638 172.91 35.4453C172.801 35.2474 172.634 35.0885 172.41 34.9687C172.186 34.8437 171.905 34.7812 171.566 34.7812C171.243 34.7812 170.975 34.8333 170.762 34.9375C170.553 35.0364 170.397 35.1666 170.293 35.3281C170.194 35.4896 170.144 35.6666 170.144 35.8594C170.144 36 170.171 36.1276 170.223 36.2422C170.28 36.3515 170.374 36.4531 170.504 36.5469C170.634 36.6354 170.811 36.7187 171.035 36.7969C171.264 36.875 171.551 36.9505 171.894 37.0234C172.54 37.1588 173.095 37.3333 173.559 37.5469C174.027 37.7552 174.387 38.026 174.637 38.3594C174.887 38.6875 175.012 39.1041 175.012 39.6094C175.012 39.9844 174.931 40.3281 174.769 40.6406C174.613 40.9479 174.384 41.2161 174.082 41.4453C173.78 41.6692 173.418 41.8437 172.996 41.9687C172.579 42.0937 172.111 42.1562 171.59 42.1562C170.824 42.1562 170.176 42.0208 169.644 41.75C169.113 41.4739 168.71 41.1224 168.434 40.6953C168.163 40.263 168.027 39.8151 168.027 39.3515H169.848C169.868 39.7005 169.965 39.9791 170.137 40.1875C170.314 40.3906 170.532 40.539 170.793 40.6328C171.059 40.7213 171.332 40.7656 171.613 40.7656C171.952 40.7656 172.236 40.7213 172.465 40.6328C172.694 40.539 172.868 40.414 172.988 40.2578C173.108 40.0963 173.168 39.914 173.168 39.7109ZM178.519 30V42H176.644V30H178.519ZM178.191 37.4609L177.582 37.4531C177.587 36.8698 177.668 36.3307 177.824 35.8359C177.986 35.3411 178.21 34.9114 178.496 34.5469C178.788 34.1771 179.137 33.8932 179.543 33.6953C179.949 33.4922 180.4 33.3906 180.894 33.3906C181.311 33.3906 181.686 33.4479 182.019 33.5625C182.358 33.6771 182.65 33.862 182.894 34.1172C183.139 34.3672 183.324 34.6953 183.449 35.1015C183.579 35.5026 183.644 35.9922 183.644 36.5703V42H181.754V36.5547C181.754 36.1484 181.694 35.8255 181.574 35.5859C181.46 35.3463 181.29 35.1745 181.066 35.0703C180.842 34.9609 180.569 34.9062 180.246 34.9062C179.907 34.9062 179.608 34.9739 179.348 35.1094C179.092 35.2448 178.879 35.4297 178.707 35.664C178.535 35.8984 178.405 36.1692 178.316 36.4765C178.233 36.7838 178.191 37.112 178.191 37.4609ZM185.191 37.8672V37.6875C185.191 37.0781 185.28 36.513 185.457 35.9922C185.634 35.4661 185.889 35.0104 186.223 34.625C186.561 34.2344 186.973 33.9323 187.457 33.7187C187.947 33.5 188.499 33.3906 189.113 33.3906C189.733 33.3906 190.285 33.5 190.769 33.7187C191.259 33.9323 191.673 34.2344 192.012 34.625C192.35 35.0104 192.608 35.4661 192.785 35.9922C192.962 36.513 193.051 37.0781 193.051 37.6875V37.8672C193.051 38.4765 192.962 39.0416 192.785 39.5625C192.608 40.0833 192.35 40.539 192.012 40.9297C191.673 41.3151 191.262 41.6172 190.777 41.8359C190.293 42.0495 189.743 42.1562 189.129 42.1562C188.509 42.1562 187.954 42.0495 187.465 41.8359C186.98 41.6172 186.569 41.3151 186.23 40.9297C185.892 40.539 185.634 40.0833 185.457 39.5625C185.28 39.0416 185.191 38.4765 185.191 37.8672ZM187.074 37.6875V37.8672C187.074 38.2474 187.113 38.6067 187.191 38.9453C187.269 39.2838 187.392 39.5807 187.559 39.8359C187.725 40.0911 187.939 40.2916 188.199 40.4375C188.46 40.5833 188.769 40.6562 189.129 40.6562C189.478 40.6562 189.78 40.5833 190.035 40.4375C190.296 40.2916 190.509 40.0911 190.676 39.8359C190.842 39.5807 190.965 39.2838 191.043 38.9453C191.126 38.6067 191.168 38.2474 191.168 37.8672V37.6875C191.168 37.3125 191.126 36.9583 191.043 36.625C190.965 36.2864 190.84 35.987 190.668 35.7265C190.501 35.4661 190.288 35.263 190.027 35.1172C189.772 34.9661 189.467 34.8906 189.113 34.8906C188.759 34.8906 188.452 34.9661 188.191 35.1172C187.936 35.263 187.725 35.4661 187.559 35.7265C187.392 35.987 187.269 36.2864 187.191 36.625C187.113 36.9583 187.074 37.3125 187.074 37.6875ZM196.519 35.1719V45.25H194.637V33.5469H196.371L196.519 35.1719ZM202.027 37.6953V37.8594C202.027 38.4739 201.954 39.0442 201.809 39.5703C201.668 40.0911 201.457 40.5469 201.176 40.9375C200.9 41.3229 200.559 41.6224 200.152 41.8359C199.746 42.0495 199.277 42.1562 198.746 42.1562C198.22 42.1562 197.759 42.0599 197.363 41.8672C196.973 41.6692 196.642 41.3906 196.371 41.0312C196.1 40.6719 195.881 40.25 195.715 39.7656C195.553 39.276 195.439 38.7396 195.371 38.1562V37.5234C195.439 36.9036 195.553 36.3411 195.715 35.8359C195.881 35.3307 196.1 34.8958 196.371 34.5312C196.642 34.1666 196.973 33.8854 197.363 33.6875C197.754 33.4896 198.21 33.3906 198.73 33.3906C199.262 33.3906 199.733 33.4948 200.144 33.7031C200.556 33.9062 200.902 34.1979 201.184 34.5781C201.465 34.9531 201.676 35.4062 201.816 35.9375C201.957 36.4635 202.027 37.0495 202.027 37.6953ZM200.144 37.8594V37.6953C200.144 37.3047 200.108 36.9427 200.035 36.6094C199.962 36.2708 199.848 35.9739 199.691 35.7187C199.535 35.4635 199.335 35.2656 199.09 35.125C198.85 34.9791 198.561 34.9062 198.223 34.9062C197.889 34.9062 197.603 34.9635 197.363 35.0781C197.124 35.1875 196.923 35.3411 196.762 35.539C196.6 35.737 196.475 35.9687 196.387 36.2344C196.298 36.4948 196.236 36.7786 196.199 37.0859V38.6015C196.262 38.9765 196.368 39.3203 196.519 39.6328C196.671 39.9453 196.884 40.1953 197.16 40.3828C197.441 40.5651 197.801 40.6562 198.238 40.6562C198.577 40.6562 198.866 40.5833 199.105 40.4375C199.345 40.2916 199.54 40.0911 199.691 39.8359C199.848 39.5755 199.962 39.276 200.035 38.9375C200.108 38.5989 200.144 38.2396 200.144 37.8594Z" fill="#414141"/>
</svg>
