<svg width="170" height="48" viewBox="0 0 170 48" fill="none" xmlns="http://www.w3.org/2000/svg">
<path d="M40.1283 40.8252C40.59 40.5692 40.8768 40.0822 40.8768 39.554C40.8769 38.878 40.4057 38.3466 39.8211 38.1705C38.6045 37.804 37.5449 39.1599 38.154 40.2589C38.5374 40.9506 39.4364 41.2087 40.1283 40.8252ZM39.1036 39.5558C39.1036 39.3467 39.3118 39.1893 39.5126 39.2468C39.6473 39.2854 39.7449 39.4139 39.7449 39.5541C39.7449 39.671 39.6816 39.7787 39.5797 39.8352C39.3763 39.9479 39.1037 39.7996 39.1036 39.5558Z" fill="#FF3F3F"/>
<path d="M41.2418 36.9429C41.7034 36.687 41.9902 36.1999 41.9902 35.6718C41.9902 34.5884 40.7813 33.877 39.8337 34.4023C39.372 34.6582 39.0853 35.1452 39.0853 35.6734C39.0853 36.7622 40.2932 37.4687 41.2418 36.9429ZM40.2585 35.8273C40.1187 35.5859 40.3619 35.2888 40.6261 35.3644C40.7611 35.403 40.8585 35.5314 40.8585 35.6717C40.8585 35.7886 40.7952 35.8963 40.6933 35.9528C40.5346 36.0408 40.3416 35.9709 40.2585 35.8273Z" fill="#FF3F3F"/>
<path d="M44.1768 38.5817C44.8678 38.1988 45.1259 37.298 44.743 36.6073C44.5513 36.2614 44.2307 36.024 43.8715 35.9208C43.5124 35.8179 43.1147 35.8492 42.7686 36.041C42.0778 36.4239 41.8197 37.3249 42.2024 38.0154C42.5906 38.7158 43.4763 38.9699 44.1768 38.5817ZM43.1521 37.3123C43.1521 37.1021 43.3587 36.9453 43.561 37.0034C43.6966 37.0422 43.7934 37.1695 43.7934 37.3106C43.7934 37.4275 43.7301 37.5352 43.6283 37.5918C43.4201 37.7071 43.1522 37.5501 43.1521 37.3123Z" fill="#FF3F3F"/>
<path d="M45.2902 34.6993C45.7519 34.4434 46.0387 33.9563 46.0387 33.4282C46.0387 32.3469 44.828 31.6344 43.8821 32.1587C43.4205 32.4147 43.1337 32.9017 43.1337 33.4299C43.1337 34.5184 44.3417 35.225 45.2902 34.6993ZM44.3071 33.5836C44.281 33.5387 44.2656 33.4865 44.2656 33.4298C44.2656 33.3129 44.3289 33.2052 44.4309 33.1487C44.6399 33.0328 44.9068 33.1887 44.9069 33.4282C44.9069 33.7537 44.4682 33.8609 44.3071 33.5836Z" fill="#FF3F3F"/>
<path d="M48.9736 35.0666C48.9737 33.978 47.7658 33.2715 46.8172 33.7972C46.3555 34.0531 46.0687 34.5402 46.0687 35.0683C46.0687 35.7093 46.506 36.2872 47.1208 36.4635C48.0358 36.7261 48.9736 36.0155 48.9736 35.0666ZM47.4329 35.3757C47.2975 35.3369 47.2006 35.2092 47.2006 35.0684C47.2005 34.7416 47.6396 34.6364 47.8003 34.9129C47.8264 34.9578 47.8417 35.01 47.8417 35.0667C47.8418 35.2769 47.6352 35.4336 47.4329 35.3757Z" fill="#FF3F3F"/>
<path d="M50.0872 31.1843C50.0872 30.0957 48.8793 29.3891 47.9307 29.9149C47.469 30.1708 47.1822 30.6578 47.1822 31.186C47.1822 31.8273 47.6192 32.4048 48.2343 32.5812C49.1496 32.8438 50.0872 32.1337 50.0872 31.1843ZM48.5464 31.4932C48.411 31.4544 48.314 31.3268 48.314 31.1859C48.314 31.069 48.3773 30.9612 48.4792 30.9048C48.6338 30.8192 48.8292 30.8752 48.9149 31.0297C49.0499 31.2734 48.8143 31.57 48.5464 31.4932Z" fill="#FF3F3F"/>
<path d="M53.0222 32.8228C53.0222 32.1814 52.5853 31.604 51.9701 31.4276C51.0554 31.1652 50.1173 31.8761 50.1173 32.8245C50.1173 33.4658 50.5542 34.0433 51.1694 34.2197C52.0843 34.4822 53.0222 33.7711 53.0222 32.8228ZM51.249 32.8245C51.249 32.6137 51.455 32.4585 51.657 32.5185C51.7853 32.5566 51.8902 32.6712 51.8902 32.8228C51.8903 33.2264 51.249 33.2393 51.249 32.8245Z" fill="#FF3F3F"/>
<path d="M53.3871 30.212C53.8488 29.9561 54.1356 29.4691 54.1356 28.9409C54.1356 27.858 52.9262 27.1464 51.979 27.6714C51.2891 28.0538 51.0306 28.9561 51.4127 29.6457C51.801 30.3462 52.6867 30.6002 53.3871 30.212ZM52.4028 29.097C52.2682 28.854 52.5038 28.557 52.7715 28.6336C52.9071 28.6725 53.0038 28.7995 53.0038 28.9409C53.0038 29.0577 52.9405 29.1655 52.8385 29.222C52.6839 29.3077 52.4885 29.2515 52.4028 29.097Z" fill="#FF3F3F"/>
<path d="M38.7907 16.0363L39.5218 15.3052C39.7429 15.0842 39.7429 14.7259 39.5218 14.5049C39.3007 14.2838 38.9425 14.2838 38.7215 14.5049C38.7215 14.5049 37.9906 15.2358 37.9904 15.236C37.7721 15.4542 37.7723 15.8182 37.9904 16.0363C38.2114 16.2573 38.5698 16.2573 38.7907 16.0363Z" fill="#FF3F3F"/>
<path d="M46.8695 24.1149L47.6006 23.3839C47.8217 23.1629 47.8217 22.8046 47.6006 22.5835C47.3795 22.3625 47.0213 22.3625 46.8003 22.5835C46.8003 22.5835 46.0694 23.3144 46.0692 23.3146C45.8538 23.5299 45.8502 23.8961 46.0692 24.1149C46.2902 24.336 46.6485 24.336 46.8695 24.1149Z" fill="#FF3F3F"/>
<path d="M43.5158 21.1864C43.8276 21.1655 44.0634 20.8963 44.0425 20.5838C44.0216 20.2719 43.7517 20.0362 43.44 20.0571C43.0775 20.0814 42.713 19.9388 42.4401 19.6657C42.1669 19.3926 42.0243 19.0279 42.0486 18.6658C42.0697 18.3534 41.8337 18.0842 41.522 18.0632C41.1164 18.036 40.9142 18.3887 40.9142 18.7457C40.9142 19.3806 41.1738 20.0003 41.6397 20.4661C42.1436 20.97 42.8275 21.2326 43.5158 21.1864Z" fill="#FF3F3F"/>
<path d="M39.8172 42.6532C39.8211 42.651 39.825 42.6487 39.8289 42.6464L56.4742 33.421C56.4782 33.4189 56.4822 33.4168 56.4862 33.4146C57.2697 32.9803 57.7563 32.1538 57.7563 31.2574C57.7563 30.8421 57.6494 30.4296 57.447 30.0645C57.447 30.0645 54.7207 25.1455 54.7199 25.144C54.6569 25.0303 54.5491 24.9336 54.4253 24.8858L51.3428 23.6932L51.4435 20.9901C51.4522 20.7588 51.3197 20.5465 51.1089 20.4523L47.8562 18.999L47.1626 15.3919C47.1188 15.1645 46.941 14.9867 46.7136 14.943L43.1066 14.2493L41.6533 10.9966C41.5591 10.7858 41.3462 10.6533 41.1155 10.6619L38.4124 10.7626L37.2197 7.68004C37.2192 7.67914 37.2186 7.67823 37.2183 7.67725C37.1698 7.55812 37.081 7.45348 36.9668 7.3898C36.9668 7.3898 32.0536 4.65555 32.051 4.65411C30.8758 4.00007 29.3518 4.43668 28.6994 5.60912C28.6994 5.60912 19.4324 22.2612 19.4318 22.2621C18.7785 23.4361 19.2139 24.9609 20.3868 25.6137C20.3868 25.6137 25.327 28.3619 25.3394 28.3676C25.4205 28.4114 25.5116 28.436 25.6061 28.4363L27.2181 28.4415L27.785 29.5136C27.8643 29.6636 28.0068 29.7702 28.1731 29.8038L29.4746 30.0672L30.0349 31.7167C30.0915 31.8832 30.2222 32.0139 30.3888 32.0705L32.0383 32.6309L32.3016 33.9323C32.3352 34.0986 32.4417 34.241 32.5917 34.3204L33.6639 34.8874L33.6691 36.4941C33.6691 36.4954 33.6689 36.4967 33.6689 36.4979C33.6689 36.5924 33.6942 36.689 33.7399 36.7718C33.7399 36.7718 36.4658 41.6902 36.467 41.6924C37.1179 42.8666 38.6423 43.3043 39.8172 42.6532ZM28.64 8.0443L29.4137 6.65405L33.3323 8.83475L32.6923 9.98486L30.0075 8.49064L29.8739 8.73094L28.64 8.0443ZM27.3161 10.4232L28.0896 9.0334L29.3235 9.72004L29.1899 9.96026L31.8747 11.4545L31.3686 12.3639L28.6838 10.8697L28.5501 11.1099L27.3161 10.4232ZM26.7657 11.4122L27.9995 12.0989L27.8659 12.3392L30.5508 13.8334L29.9109 14.983L25.9922 12.8022L26.7657 11.4122ZM24.6684 15.1809L25.4419 13.7911L29.3606 15.9719L28.7208 17.1216L26.036 15.6273L25.9024 15.8676L24.6684 15.1809ZM23.3443 17.5603L24.118 16.17L25.3518 16.8567L25.2182 17.097L27.903 18.5912L27.3969 19.5006L24.7121 18.0064L24.5782 18.247L23.3443 17.5603ZM22.0204 19.9392L22.7939 18.5494L24.0277 19.236L23.8943 19.4758L26.5792 20.97L26.0731 21.8794L23.3883 20.3852L23.2543 20.6259L22.0204 19.9392ZM21.47 20.9282L22.7039 21.6148L22.5705 21.8546L25.2553 23.3488L24.6153 24.4989L20.6966 22.3182L21.47 20.9282ZM20.9374 24.6247C20.515 24.3896 20.2526 23.9428 20.2526 23.4588C20.2526 23.4285 20.2538 23.3983 20.2559 23.3681L24.5593 25.763C24.8324 25.915 25.177 25.8168 25.329 25.5436C25.329 25.5436 34.5775 8.92491 34.5966 8.89066C34.7414 8.63037 34.6524 8.27396 34.3773 8.12088L30.0751 5.72666C30.1987 5.63786 30.3371 5.56898 30.4878 5.52605C30.8301 5.42857 31.1898 5.47014 31.5007 5.64322L35.9219 8.1036L25.3586 27.0852L20.9374 24.6247ZM26.5304 27.3075L32.258 17.0154L36.5995 9.21402L37.3995 11.2815L27.2489 27.3098L26.5304 27.3075ZM33.358 33.4452L33.1489 32.4118L40.766 25.8341C40.9972 25.6344 41.0243 25.2675 40.8244 25.0359C40.6201 24.7993 40.2627 24.7731 40.0262 24.9775L32.4038 31.5597L31.0171 31.0887L30.546 29.7019L32.2724 27.7025C32.4768 27.4659 32.4504 27.1086 32.214 26.9043C31.9774 26.7 31.6201 26.7263 31.4158 26.9628L29.6938 28.9569L28.6605 28.7478L28.2134 27.9024L38.349 11.8978L40.7758 11.8074L42.0468 14.652C42.0468 14.652 32.883 25.2638 32.8806 25.2665C32.6808 25.4978 32.7078 25.8651 32.939 26.0647C33.1726 26.2662 33.5356 26.2397 33.7372 26.0063L42.9247 15.3671L46.1235 15.9822L46.7387 19.1809C46.7387 19.1809 41.7289 23.5071 41.7284 23.5075C41.495 23.7091 41.4684 24.0722 41.67 24.3057C41.8698 24.5373 42.2342 24.5664 42.4683 24.3641L47.4539 20.0588L50.2984 21.3298L50.208 23.7566L34.2033 33.8922L33.358 33.4452ZM34.7959 34.8568L50.8241 24.7061L52.8961 25.5078L34.798 35.5383L34.7959 34.8568ZM37.4571 41.1437L35.0044 36.7182L54.0043 26.1878L56.457 30.6133C56.5665 30.8109 56.6244 31.0337 56.6244 31.2576C56.6244 31.7389 56.3652 32.1829 55.9472 32.4192C55.9438 32.421 55.9404 32.4229 55.937 32.4247L39.2687 41.6629C39.2653 41.6647 39.2619 41.6667 39.2585 41.6687C38.6354 42.0276 37.7978 41.7652 37.4571 41.1437Z" fill="#FF3F3F"/>
<path d="M75.5921 27.2441V30.4687C75.4722 30.6273 75.2847 30.8013 75.0295 30.9907C74.7782 31.1763 74.4438 31.3368 74.0262 31.4721C73.6086 31.6074 73.0886 31.6751 72.4661 31.6751C71.9364 31.6751 71.4511 31.5861 71.0104 31.4083C70.5696 31.2266 70.1887 30.9617 69.8678 30.6137C69.5508 30.2658 69.3052 29.8424 69.1313 29.3436C68.9573 28.841 68.8703 28.2687 68.8703 27.6269V27.0411C68.8703 26.4032 68.9495 25.8348 69.1081 25.336C69.2704 24.8334 69.5024 24.4081 69.804 24.0601C70.1056 23.7121 70.469 23.4492 70.8944 23.2714C71.3235 23.0896 71.8088 22.9988 72.3501 22.9988C73.0422 22.9988 73.6144 23.1148 74.0668 23.3467C74.523 23.5749 74.8749 23.8919 75.1223 24.2979C75.3698 24.7039 75.5264 25.1678 75.5921 25.6898H74.1654C74.119 25.396 74.0281 25.133 73.8928 24.9011C73.7613 24.6691 73.5719 24.4873 73.3244 24.3559C73.0808 24.2206 72.7638 24.1529 72.3733 24.1529C72.0369 24.1529 71.7411 24.2167 71.4859 24.3443C71.2307 24.4719 71.0181 24.6594 70.848 24.9069C70.6817 25.1543 70.556 25.4559 70.471 25.8116C70.3859 26.1673 70.3434 26.5733 70.3434 27.0295V27.6269C70.3434 28.0909 70.3917 28.5027 70.4884 28.8622C70.5889 29.2218 70.732 29.5253 70.9176 29.7728C71.107 30.0202 71.3371 30.2078 71.6077 30.3354C71.8784 30.4591 72.1838 30.5209 72.5241 30.5209C72.8566 30.5209 73.1292 30.4939 73.3418 30.4397C73.5545 30.3817 73.7227 30.3141 73.8464 30.2368C73.974 30.1556 74.0726 30.0782 74.1422 30.0048V28.3287H72.3849V27.2441H75.5921ZM80.603 30.3006V27.3079C80.603 27.0837 80.5624 26.8903 80.4812 26.728C80.4 26.5656 80.2763 26.4399 80.11 26.351C79.9476 26.262 79.7427 26.2176 79.4953 26.2176C79.2671 26.2176 79.07 26.2562 78.9037 26.3336C78.7374 26.4109 78.6079 26.5153 78.5151 26.6468C78.4223 26.7782 78.3759 26.9271 78.3759 27.0933H76.984C76.984 26.8459 77.0439 26.6062 77.1638 26.3742C77.2837 26.1422 77.4577 25.9353 77.6858 25.7536C77.9139 25.5719 78.1865 25.4288 78.5035 25.3244C78.8206 25.22 79.1763 25.1678 79.5707 25.1678C80.0424 25.1678 80.4599 25.2471 80.8234 25.4056C81.1907 25.5642 81.4788 25.8039 81.6875 26.1248C81.9002 26.4418 82.0065 26.8401 82.0065 27.3195V30.1092C82.0065 30.3953 82.0259 30.6524 82.0645 30.8805C82.1071 31.1048 82.167 31.3 82.2443 31.4663V31.5591H80.8118C80.7461 31.4083 80.6939 31.2169 80.6552 30.9849C80.6204 30.7491 80.603 30.5209 80.603 30.3006ZM80.806 27.7429L80.8176 28.607H79.8143C79.5552 28.607 79.3271 28.6322 79.1299 28.6824C78.9327 28.7288 78.7684 28.7984 78.6369 28.8912C78.5055 28.984 78.4069 29.0962 78.3411 29.2276C78.2754 29.3591 78.2425 29.5079 78.2425 29.6742C78.2425 29.8404 78.2812 29.9932 78.3585 30.1324C78.4359 30.2677 78.548 30.374 78.6949 30.4513C78.8457 30.5287 79.0274 30.5673 79.2401 30.5673C79.5262 30.5673 79.7756 30.5093 79.9882 30.3933C80.2048 30.2735 80.3749 30.1285 80.4986 29.9584C80.6223 29.7844 80.6881 29.6201 80.6958 29.4654L81.1482 30.086C81.1018 30.2445 81.0225 30.4146 80.9104 30.5963C80.7983 30.7781 80.6513 30.952 80.4696 31.1183C80.2918 31.2807 80.0772 31.4141 79.8259 31.5185C79.5784 31.6229 79.2923 31.6751 78.9675 31.6751C78.5577 31.6751 78.1923 31.5939 77.8714 31.4315C77.5504 31.2652 77.2991 31.0429 77.1174 30.7645C76.9357 30.4823 76.8448 30.1633 76.8448 29.8076C76.8448 29.4751 76.9067 29.1812 77.0304 28.926C77.158 28.667 77.3436 28.4505 77.5872 28.2765C77.8346 28.1025 78.1362 27.971 78.4919 27.8821C78.8476 27.7893 79.2536 27.7429 79.7099 27.7429H80.806ZM84.8716 26.4786V31.5591H83.4738V25.2838H84.8078L84.8716 26.4786ZM86.7913 25.2432L86.7797 26.5424C86.6946 26.5269 86.6018 26.5153 86.5013 26.5076C86.4046 26.4998 86.308 26.496 86.2113 26.496C85.9716 26.496 85.7608 26.5308 85.5791 26.6004C85.3974 26.6661 85.2447 26.7628 85.121 26.8903C85.0011 27.0141 84.9083 27.1649 84.8426 27.3427C84.7768 27.5206 84.7382 27.7197 84.7266 27.9401L84.4076 27.9633C84.4076 27.5689 84.4463 27.2035 84.5236 26.8671C84.6009 26.5308 84.7169 26.235 84.8716 25.9798C85.0301 25.7246 85.2273 25.5255 85.4631 25.3824C85.7029 25.2394 85.9793 25.1678 86.2925 25.1678C86.3775 25.1678 86.4684 25.1756 86.5651 25.191C86.6656 25.2065 86.741 25.2239 86.7913 25.2432ZM89.0647 26.5598V31.5591H87.667V25.2838H88.9835L89.0647 26.5598ZM88.8385 28.1895L88.363 28.1837C88.363 27.7506 88.4171 27.3505 88.5254 26.9831C88.6336 26.6158 88.7921 26.2968 89.0009 26.0262C89.2097 25.7517 89.4688 25.541 89.7781 25.394C90.0913 25.2432 90.4528 25.1678 90.8626 25.1678C91.1487 25.1678 91.4097 25.2104 91.6456 25.2954C91.8853 25.3766 92.0922 25.5062 92.2661 25.684C92.444 25.8619 92.5793 26.09 92.6721 26.3684C92.7688 26.6468 92.8171 26.9831 92.8171 27.3775V31.5591H91.4194V27.4993C91.4194 27.1939 91.373 26.9541 91.2802 26.7802C91.1913 26.6062 91.0618 26.4824 90.8916 26.409C90.7254 26.3316 90.5262 26.293 90.2943 26.293C90.0313 26.293 89.8071 26.3432 89.6215 26.4438C89.4398 26.5443 89.2909 26.6816 89.1749 26.8555C89.0589 27.0295 88.9739 27.2306 88.9197 27.4587C88.8656 27.6868 88.8385 27.9304 88.8385 28.1895ZM92.7301 27.8183L92.0748 27.9633C92.0748 27.5844 92.127 27.2267 92.2314 26.8903C92.3396 26.5501 92.4962 26.2524 92.7011 25.9972C92.9099 25.7381 93.167 25.5352 93.4725 25.3882C93.7779 25.2413 94.1278 25.1678 94.5222 25.1678C94.8431 25.1678 95.1293 25.2123 95.3806 25.3012C95.6358 25.3863 95.8523 25.5216 96.0301 25.7072C96.208 25.8928 96.3433 26.1345 96.4361 26.4322C96.5289 26.726 96.5753 27.0817 96.5753 27.4993V31.5591H95.1718V27.4935C95.1718 27.1765 95.1254 26.9309 95.0326 26.757C94.9437 26.583 94.8161 26.4631 94.6498 26.3974C94.4836 26.3278 94.2844 26.293 94.0524 26.293C93.8359 26.293 93.6445 26.3336 93.4783 26.4148C93.3159 26.4921 93.1786 26.6023 93.0665 26.7454C92.9544 26.8845 92.8693 27.045 92.8113 27.2267C92.7572 27.4085 92.7301 27.6056 92.7301 27.8183ZM97.7468 28.4911V28.3577C97.7468 27.9053 97.8126 27.4858 97.944 27.0991C98.0755 26.7086 98.2649 26.3703 98.5124 26.0842C98.7637 25.7942 99.0692 25.57 99.4287 25.4114C99.7922 25.249 100.202 25.1678 100.658 25.1678C101.118 25.1678 101.528 25.249 101.888 25.4114C102.251 25.57 102.559 25.7942 102.81 26.0842C103.061 26.3703 103.253 26.7086 103.384 27.0991C103.516 27.4858 103.581 27.9053 103.581 28.3577V28.4911C103.581 28.9434 103.516 29.3629 103.384 29.7496C103.253 30.1362 103.061 30.4745 102.81 30.7645C102.559 31.0506 102.253 31.2749 101.894 31.4373C101.534 31.5958 101.126 31.6751 100.67 31.6751C100.21 31.6751 99.798 31.5958 99.4345 31.4373C99.075 31.2749 98.7695 31.0506 98.5182 30.7645C98.2669 30.4745 98.0755 30.1362 97.944 29.7496C97.8126 29.3629 97.7468 28.9434 97.7468 28.4911ZM99.1446 28.3577V28.4911C99.1446 28.7733 99.1736 29.0401 99.2316 29.2914C99.2896 29.5427 99.3804 29.7631 99.5041 29.9526C99.6279 30.142 99.7864 30.2909 99.9797 30.3991C100.173 30.5074 100.403 30.5615 100.67 30.5615C100.929 30.5615 101.153 30.5074 101.343 30.3991C101.536 30.2909 101.694 30.142 101.818 29.9526C101.942 29.7631 102.033 29.5427 102.091 29.2914C102.153 29.0401 102.184 28.7733 102.184 28.4911V28.3577C102.184 28.0793 102.153 27.8164 102.091 27.5689C102.033 27.3176 101.94 27.0953 101.812 26.9019C101.689 26.7086 101.53 26.5578 101.337 26.4496C101.147 26.3374 100.921 26.2814 100.658 26.2814C100.395 26.2814 100.167 26.3374 99.9739 26.4496C99.7845 26.5578 99.6279 26.7086 99.5041 26.9019C99.3804 27.0953 99.2896 27.3176 99.2316 27.5689C99.1736 27.8164 99.1446 28.0793 99.1446 28.3577ZM106.139 26.6236V31.5591H104.741V25.2838H106.058L106.139 26.6236ZM105.89 28.1895L105.437 28.1837C105.441 27.739 105.503 27.3311 105.623 26.9599C105.747 26.5888 105.917 26.2698 106.133 26.003C106.354 25.7362 106.616 25.5313 106.922 25.3882C107.227 25.2413 107.568 25.1678 107.943 25.1678C108.244 25.1678 108.517 25.2104 108.76 25.2954C109.008 25.3766 109.219 25.51 109.393 25.6956C109.57 25.8812 109.706 26.1229 109.799 26.4206C109.891 26.7144 109.938 27.0759 109.938 27.5051V31.5591H108.534V27.4993C108.534 27.1977 108.49 26.9599 108.401 26.786C108.316 26.6081 108.19 26.4824 108.024 26.409C107.861 26.3316 107.658 26.293 107.415 26.293C107.175 26.293 106.961 26.3432 106.771 26.4438C106.582 26.5443 106.421 26.6816 106.29 26.8555C106.162 27.0295 106.064 27.2306 105.994 27.4587C105.924 27.6868 105.89 27.9304 105.89 28.1895ZM112.861 25.2838V31.5591H111.457V25.2838H112.861ZM111.364 23.6367C111.364 23.4241 111.434 23.2482 111.573 23.109C111.716 22.9659 111.914 22.8944 112.165 22.8944C112.412 22.8944 112.608 22.9659 112.751 23.109C112.894 23.2482 112.965 23.4241 112.965 23.6367C112.965 23.8455 112.894 24.0195 112.751 24.1587C112.608 24.2979 112.412 24.3675 112.165 24.3675C111.914 24.3675 111.716 24.2979 111.573 24.1587C111.434 24.0195 111.364 23.8455 111.364 23.6367ZM117.93 30.3006V27.3079C117.93 27.0837 117.889 26.8903 117.808 26.728C117.727 26.5656 117.603 26.4399 117.437 26.351C117.274 26.262 117.069 26.2176 116.822 26.2176C116.594 26.2176 116.397 26.2562 116.23 26.3336C116.064 26.4109 115.935 26.5153 115.842 26.6468C115.749 26.7782 115.703 26.9271 115.703 27.0933H114.311C114.311 26.8459 114.371 26.6062 114.49 26.3742C114.61 26.1422 114.784 25.9353 115.012 25.7536C115.241 25.5719 115.513 25.4288 115.83 25.3244C116.147 25.22 116.503 25.1678 116.897 25.1678C117.369 25.1678 117.787 25.2471 118.15 25.4056C118.517 25.5642 118.805 25.8039 119.014 26.1248C119.227 26.4418 119.333 26.8401 119.333 27.3195V30.1092C119.333 30.3953 119.353 30.6524 119.391 30.8805C119.434 31.1048 119.494 31.3 119.571 31.4663V31.5591H118.138C118.073 31.4083 118.021 31.2169 117.982 30.9849C117.947 30.7491 117.93 30.5209 117.93 30.3006ZM118.133 27.7429L118.144 28.607H117.141C116.882 28.607 116.654 28.6322 116.457 28.6824C116.259 28.7288 116.095 28.7984 115.964 28.8912C115.832 28.984 115.734 29.0962 115.668 29.2276C115.602 29.3591 115.569 29.5079 115.569 29.6742C115.569 29.8404 115.608 29.9932 115.685 30.1324C115.763 30.2677 115.875 30.374 116.022 30.4513C116.172 30.5287 116.354 30.5673 116.567 30.5673C116.853 30.5673 117.102 30.5093 117.315 30.3933C117.531 30.2735 117.702 30.1285 117.825 29.9584C117.949 29.7844 118.015 29.6201 118.022 29.4654L118.475 30.086C118.428 30.2445 118.349 30.4146 118.237 30.5963C118.125 30.7781 117.978 30.952 117.796 31.1183C117.618 31.2807 117.404 31.4141 117.153 31.5185C116.905 31.6229 116.619 31.6751 116.294 31.6751C115.884 31.6751 115.519 31.5939 115.198 31.4315C114.877 31.2652 114.626 31.0429 114.444 30.7645C114.262 30.4823 114.172 30.1633 114.172 29.8076C114.172 29.4751 114.233 29.1812 114.357 28.926C114.485 28.667 114.67 28.4505 114.914 28.2765C115.161 28.1025 115.463 27.971 115.819 27.8821C116.174 27.7893 116.58 27.7429 117.037 27.7429H118.133ZM123.608 27.3949V28.5085H120.54V27.3949H123.608ZM128.352 29.8598C128.352 29.7206 128.317 29.5949 128.247 29.4828C128.178 29.3668 128.044 29.2624 127.847 29.1696C127.654 29.0768 127.368 28.9918 126.989 28.9144C126.656 28.841 126.351 28.754 126.072 28.6534C125.798 28.5491 125.562 28.4234 125.365 28.2765C125.168 28.1295 125.015 27.9556 124.907 27.7545C124.798 27.5534 124.744 27.3215 124.744 27.0585C124.744 26.8034 124.8 26.5617 124.913 26.3336C125.025 26.1055 125.185 25.9044 125.394 25.7304C125.603 25.5564 125.856 25.4192 126.154 25.3186C126.455 25.2181 126.792 25.1678 127.163 25.1678C127.689 25.1678 128.139 25.2568 128.514 25.4346C128.893 25.6086 129.183 25.8464 129.384 26.148C129.585 26.4457 129.686 26.7821 129.686 27.1571H128.288C128.288 26.9909 128.245 26.8362 128.16 26.6932C128.079 26.5462 127.955 26.4283 127.789 26.3394C127.623 26.2466 127.414 26.2002 127.163 26.2002C126.923 26.2002 126.724 26.2388 126.565 26.3162C126.411 26.3896 126.295 26.4863 126.217 26.6062C126.144 26.726 126.107 26.8575 126.107 27.0005C126.107 27.1049 126.127 27.1997 126.165 27.2847C126.208 27.3659 126.277 27.4413 126.374 27.5109C126.471 27.5766 126.602 27.6385 126.768 27.6965C126.939 27.7545 127.151 27.8106 127.406 27.8647C127.886 27.9652 128.298 28.0947 128.642 28.2533C128.99 28.4079 129.256 28.609 129.442 28.8564C129.628 29.1 129.72 29.4093 129.72 29.7844C129.72 30.0628 129.661 30.318 129.541 30.5499C129.425 30.7781 129.255 30.9772 129.03 31.1473C128.806 31.3136 128.537 31.4431 128.224 31.5359C127.915 31.6287 127.567 31.6751 127.18 31.6751C126.612 31.6751 126.13 31.5745 125.736 31.3735C125.342 31.1686 125.042 30.9076 124.837 30.5905C124.636 30.2696 124.536 29.9371 124.536 29.593H125.887C125.902 29.852 125.974 30.0589 126.101 30.2136C126.233 30.3643 126.395 30.4745 126.589 30.5441C126.786 30.6099 126.989 30.6427 127.198 30.6427C127.449 30.6427 127.66 30.6099 127.83 30.5441C128 30.4745 128.129 30.3817 128.218 30.2658C128.307 30.1459 128.352 30.0106 128.352 29.8598ZM132.324 22.6508V31.5591H130.933V22.6508H132.324ZM132.081 28.1895L131.629 28.1837C131.632 27.7506 131.692 27.3505 131.808 26.9831C131.928 26.6158 132.094 26.2968 132.307 26.0262C132.524 25.7517 132.783 25.541 133.084 25.394C133.386 25.2432 133.72 25.1678 134.088 25.1678C134.397 25.1678 134.675 25.2104 134.923 25.2954C135.174 25.3805 135.391 25.5178 135.572 25.7072C135.754 25.8928 135.891 26.1364 135.984 26.438C136.081 26.7357 136.129 27.0991 136.129 27.5283V31.5591H134.726V27.5167C134.726 27.2151 134.681 26.9754 134.592 26.7976C134.507 26.6197 134.381 26.4921 134.215 26.4148C134.049 26.3336 133.846 26.293 133.606 26.293C133.355 26.293 133.133 26.3432 132.939 26.4438C132.75 26.5443 132.591 26.6816 132.464 26.8555C132.336 27.0295 132.239 27.2306 132.174 27.4587C132.112 27.6868 132.081 27.9304 132.081 28.1895ZM137.277 28.4911V28.3577C137.277 27.9053 137.343 27.4858 137.475 27.0991C137.606 26.7086 137.796 26.3703 138.043 26.0842C138.294 25.7942 138.6 25.57 138.959 25.4114C139.323 25.249 139.733 25.1678 140.189 25.1678C140.649 25.1678 141.059 25.249 141.418 25.4114C141.782 25.57 142.089 25.7942 142.341 26.0842C142.592 26.3703 142.783 26.7086 142.915 27.0991C143.046 27.4858 143.112 27.9053 143.112 28.3577V28.4911C143.112 28.9434 143.046 29.3629 142.915 29.7496C142.783 30.1362 142.592 30.4745 142.341 30.7645C142.089 31.0506 141.784 31.2749 141.424 31.4373C141.065 31.5958 140.657 31.6751 140.2 31.6751C139.74 31.6751 139.329 31.5958 138.965 31.4373C138.606 31.2749 138.3 31.0506 138.049 30.7645C137.797 30.4745 137.606 30.1362 137.475 29.7496C137.343 29.3629 137.277 28.9434 137.277 28.4911ZM138.675 28.3577V28.4911C138.675 28.7733 138.704 29.0401 138.762 29.2914C138.82 29.5427 138.911 29.7631 139.035 29.9526C139.158 30.142 139.317 30.2909 139.51 30.3991C139.704 30.5074 139.934 30.5615 140.2 30.5615C140.459 30.5615 140.684 30.5074 140.873 30.3991C141.067 30.2909 141.225 30.142 141.349 29.9526C141.472 29.7631 141.563 29.5427 141.621 29.2914C141.683 29.0401 141.714 28.7733 141.714 28.4911V28.3577C141.714 28.0793 141.683 27.8164 141.621 27.5689C141.563 27.3176 141.471 27.0953 141.343 26.9019C141.219 26.7086 141.061 26.5578 140.867 26.4496C140.678 26.3374 140.452 26.2814 140.189 26.2814C139.926 26.2814 139.698 26.3374 139.504 26.4496C139.315 26.5578 139.158 26.7086 139.035 26.9019C138.911 27.0953 138.82 27.3176 138.762 27.5689C138.704 27.8164 138.675 28.0793 138.675 28.3577ZM145.687 26.4902V33.9717H144.289V25.2838H145.577L145.687 26.4902ZM149.776 28.3635V28.4853C149.776 28.9415 149.722 29.3649 149.613 29.7554C149.509 30.142 149.352 30.4803 149.144 30.7703C148.939 31.0564 148.685 31.2788 148.384 31.4373C148.082 31.5958 147.734 31.6751 147.34 31.6751C146.949 31.6751 146.607 31.6035 146.313 31.4605C146.023 31.3136 145.778 31.1067 145.577 30.8399C145.376 30.5731 145.213 30.26 145.09 29.9004C144.97 29.5369 144.885 29.1387 144.834 28.7056V28.2359C144.885 27.7758 144.97 27.3582 145.09 26.9831C145.213 26.6081 145.376 26.2852 145.577 26.0146C145.778 25.7439 146.023 25.5352 146.313 25.3882C146.603 25.2413 146.942 25.1678 147.328 25.1678C147.723 25.1678 148.073 25.2452 148.378 25.3998C148.683 25.5506 148.941 25.7671 149.149 26.0494C149.358 26.3278 149.515 26.6642 149.619 27.0585C149.724 27.449 149.776 27.884 149.776 28.3635ZM148.378 28.4853V28.3635C148.378 28.0735 148.351 27.8048 148.297 27.5573C148.243 27.306 148.158 27.0856 148.042 26.8961C147.926 26.7067 147.777 26.5598 147.595 26.4554C147.417 26.3471 147.203 26.293 146.951 26.293C146.704 26.293 146.491 26.3355 146.313 26.4206C146.135 26.5018 145.987 26.6158 145.867 26.7628C145.747 26.9097 145.654 27.0817 145.588 27.2789C145.523 27.4722 145.476 27.683 145.449 27.9111V29.0362C145.496 29.3146 145.575 29.5698 145.687 29.8018C145.799 30.0338 145.958 30.2194 146.163 30.3585C146.371 30.4939 146.638 30.5615 146.963 30.5615C147.214 30.5615 147.429 30.5074 147.607 30.3991C147.784 30.2909 147.929 30.142 148.042 29.9526C148.158 29.7593 148.243 29.5369 148.297 29.2856C148.351 29.0343 148.378 28.7675 148.378 28.4853Z" fill="#F9F9F9"/>
</svg>
