<svg width="40" height="30" viewBox="0 0 40 30" fill="none" xmlns="http://www.w3.org/2000/svg">
<path d="M0.488086 27.1377C0.160133 27.452 0 27.8511 0 28.3349C0 28.8187 0.160133 29.2178 0.488086 29.5322C0.816039 29.8465 1.23239 30 1.73713 30H38.2629C38.7676 30 39.184 29.8465 39.5119 29.5322C39.8399 29.2178 40 28.8187 40 28.3349C40 27.8511 39.8399 27.452 39.5119 27.1377C39.184 26.8233 38.7676 26.6698 38.2629 26.6698H1.73713C1.23239 26.6698 0.816039 26.8233 0.488086 27.1377ZM39.5119 16.193C39.8399 15.8786 40 15.4795 40 14.9957C40 14.5119 39.8399 14.1128 39.5119 13.7985C39.184 13.4841 38.7676 13.3306 38.2629 13.3306H1.73713C1.23239 13.3306 0.816039 13.4841 0.488086 13.7985C0.160133 14.1128 0 14.5119 0 14.9957C0 15.4795 0.160133 15.8786 0.488086 16.193C0.816039 16.5073 1.23239 16.6608 1.73713 16.6608H38.2629C38.7676 16.6608 39.184 16.5073 39.5119 16.193ZM39.5119 2.86235C39.8399 2.54799 40 2.14891 40 1.6651C40 1.18129 39.8399 0.782204 39.5119 0.46785C39.184 0.153496 38.7676 1.90735e-06 38.2629 1.90735e-06H1.73713C1.23239 1.90735e-06 0.816039 0.153496 0.488086 0.46785C0.160133 0.782204 0 1.18129 0 1.6651C0 2.14891 0.160133 2.54799 0.488086 2.86235C0.816039 3.1767 1.23239 3.3302 1.73713 3.3302H38.2629C38.7676 3.3302 39.184 3.16933 39.5119 2.86235Z" fill="#F9F9F9"/>
</svg>
