<svg width="75" height="75" viewBox="0 0 75 75" fill="none" xmlns="http://www.w3.org/2000/svg">
<rect width="75" height="75" rx="15" fill="#414141"/>
<rect x="21" y="15" width="32" height="47" fill="#F9F9F9"/>
<path d="M31.7254 27.2129C31.7254 24.1914 34.3225 21.7441 37.5 21.7441C40.6775 21.7441 43.2746 24.1914 43.2746 27.2129C43.2746 30.2207 40.6775 32.6543 37.5 32.6543C34.3225 32.6543 31.7254 30.207 31.7254 27.2129ZM70 13.9375V62.0625C70 65.6855 66.8806 68.625 63.0357 68.625H11.9643C8.11942 68.625 5 65.6855 5 62.0625V13.9375C5 10.3145 8.11942 7.375 11.9643 7.375H63.0357C66.8806 7.375 70 10.3145 70 13.9375ZM25.7333 27.2129C25.7333 33.3105 31.0145 38.2734 37.5 38.2734C43.9855 38.2734 49.2667 33.3242 49.2667 27.2129C49.2667 21.0879 43.9855 16.125 37.5 16.125C31.0145 16.125 25.7333 21.0742 25.7333 27.2129ZM51.0513 39.6133C50.3839 38.3691 48.5413 37.3164 46.1038 39.1211C46.1038 39.1211 42.8103 41.582 37.5 41.582C32.1897 41.582 28.8962 39.1211 28.8962 39.1211C26.4587 37.3164 24.6161 38.3691 23.9487 39.6133C22.8025 41.8145 24.1083 42.8535 27.0536 44.6719C29.5636 46.1895 33.0312 46.75 35.2656 46.9688L33.394 48.7324C30.7533 51.1934 28.2433 53.5859 26.4732 55.2539C23.9196 57.6602 28.0257 61.5156 30.5937 59.1641L37.5145 52.6152C40.1551 55.1035 42.6942 57.4961 44.4353 59.1641C46.9888 61.5156 51.1094 57.7012 48.5848 55.2539L41.6641 48.7324L39.7779 46.9688C42.0268 46.75 45.4509 46.1621 47.9319 44.6719C50.8917 42.8535 52.183 41.8008 51.0513 39.6133Z" fill="#414141"/>
</svg>
