<svg width="35" height="35" viewBox="0 0 35 35" fill="none" xmlns="http://www.w3.org/2000/svg">
<rect width="35" height="35" rx="11" fill="#414141"/>
<rect x="9.80005" y="7" width="14.9333" height="21.9333" fill="#F9F9F9"/>
<path d="M14.8052 12.6993C14.8052 11.2893 16.0172 10.1473 17.5 10.1473C18.9829 10.1473 20.1948 11.2893 20.1948 12.6993C20.1948 14.103 18.9829 15.2387 17.5 15.2387C16.0172 15.2387 14.8052 14.0966 14.8052 12.6993ZM32.6667 6.50415V28.9625C32.6667 30.6532 31.211 32.025 29.4167 32.025H5.58337C3.7891 32.025 2.33337 30.6532 2.33337 28.9625V6.50415C2.33337 4.8134 3.7891 3.44165 5.58337 3.44165H29.4167C31.211 3.44165 32.6667 4.8134 32.6667 6.50415ZM12.0089 12.6993C12.0089 15.5449 14.4735 17.8609 17.5 17.8609C20.5266 17.8609 22.9912 15.5513 22.9912 12.6993C22.9912 9.841 20.5266 7.52498 17.5 7.52498C14.4735 7.52498 12.0089 9.83462 12.0089 12.6993ZM23.824 18.4862C23.5125 17.9056 22.6526 17.4143 21.5151 18.2565C21.5151 18.2565 19.9782 19.4049 17.5 19.4049C15.0219 19.4049 13.4849 18.2565 13.4849 18.2565C12.3474 17.4143 11.4875 17.9056 11.1761 18.4862C10.6412 19.5134 11.2506 19.9983 12.625 20.8469C13.7964 21.5551 15.4146 21.8167 16.4573 21.9187L15.5839 22.7418C14.3516 23.8902 13.1802 25.0068 12.3542 25.7851C11.1625 26.9081 13.0787 28.7073 14.2771 27.6099L17.5068 24.5538C18.7391 25.715 19.924 26.8315 20.7365 27.6099C21.9282 28.7073 23.8511 26.9272 22.673 25.7851L19.4433 22.7418L18.5631 21.9187C19.6125 21.8167 21.2105 21.5423 22.3683 20.8469C23.7495 19.9983 24.3521 19.507 23.824 18.4862Z" fill="#414141"/>
</svg>
