<svg width="40" height="41" viewBox="0 0 40 41" fill="none" xmlns="http://www.w3.org/2000/svg">
<path d="M20.0001 5.46666C19.2627 5.46666 18.6667 6.07756 18.6667 6.83334V19.1334H12C11.2627 19.1334 10.6667 19.7443 10.6667 20.5C10.6667 21.2557 11.2627 21.8666 12 21.8666H20.0001C20.7373 21.8666 21.3333 21.2557 21.3333 20.5V6.83334C21.3333 6.07756 20.7373 5.46666 20.0001 5.46666ZM20.0001 0C8.95466 0 0 9.17854 0 20.5C0 31.8214 8.95466 41 20.0001 41C31.0453 41 40 31.8214 40 20.5C40 9.17854 31.0453 0 20.0001 0ZM20.0001 38.2666C10.4267 38.2666 2.66667 30.3126 2.66667 20.5C2.66667 10.6873 10.4267 2.73334 20.0001 2.73334C29.5733 2.73334 37.3333 10.6873 37.3333 20.5C37.3333 30.3126 29.5733 38.2666 20.0001 38.2666Z" fill="#414141"/>
</svg>
