<svg width="29" height="28" viewBox="0 0 29 28" fill="none" xmlns="http://www.w3.org/2000/svg">
<path d="M14.7734 3.73333C14.2641 3.73333 13.8525 4.15053 13.8525 4.66667V13.0667H9.24802C8.73877 13.0667 8.32713 13.4839 8.32713 14C8.32713 14.5161 8.73877 14.9333 9.24802 14.9333H14.7734C15.2826 14.9333 15.6942 14.5161 15.6942 14V4.66667C15.6942 4.15053 15.2826 3.73333 14.7734 3.73333ZM14.7734 0C7.14471 0 0.960022 6.26827 0.960022 14C0.960022 21.7317 7.14471 28 14.7734 28C22.402 28 28.5867 21.7317 28.5867 14C28.5867 6.26827 22.402 0 14.7734 0ZM14.7734 26.1333C8.16137 26.1333 2.8018 20.7013 2.8018 14C2.8018 7.29867 8.16137 1.86667 14.7734 1.86667C21.3853 1.86667 26.7449 7.29867 26.7449 14C26.7449 20.7013 21.3853 26.1333 14.7734 26.1333Z" fill="#414141"/>
</svg>
