<svg width="49" height="49" viewBox="0 0 49 49" fill="none" xmlns="http://www.w3.org/2000/svg">
<path d="M39.5808 49H9.43739C6.9391 49 4.54313 48.0076 2.77657 46.241C1.01001 44.4744 0.0175629 42.0785 0.0175629 39.5802V13.2046C0.0175629 12.705 0.216051 12.2258 0.569364 11.8725C0.922676 11.5192 1.40187 11.3207 1.90153 11.3207H39.5808C42.0791 11.3207 44.4751 12.3131 46.2417 14.0797C48.0082 15.8462 49.0007 18.2422 49.0007 20.7405V39.5802C49.0007 42.0785 48.0082 44.4744 46.2417 46.241C44.4751 48.0076 42.0791 49 39.5808 49ZM3.78549 15.0886V39.5802C3.78549 41.0791 4.38096 42.5167 5.4409 43.5767C6.50083 44.6366 7.93842 45.2321 9.43739 45.2321H39.5808C41.0798 45.2321 42.5174 44.6366 43.5773 43.5767C44.6373 42.5167 45.2327 41.0791 45.2327 39.5802V20.7405C45.2327 19.2415 44.6373 17.8039 43.5773 16.744C42.5174 15.6841 41.0798 15.0886 39.5808 15.0886H3.78549Z" fill="#414141"/>
<path d="M43.3488 15.0887C42.8491 15.0887 42.3699 14.8902 42.0166 14.5369C41.6633 14.1836 41.4648 13.7044 41.4648 13.2047V8.02381C41.5009 7.36384 41.3875 6.70423 41.1331 6.09421C40.8786 5.48419 40.4897 4.9395 39.9953 4.50079C39.5511 4.168 39.0369 3.94075 38.4918 3.8363C37.9467 3.73184 37.3849 3.75292 36.8491 3.89793L5.255 11.0758C4.83001 11.1715 4.45132 11.4116 4.1834 11.7551C3.91547 12.0986 3.77486 12.5243 3.7855 12.9598C3.7855 13.4595 3.58702 13.9387 3.2337 14.292C2.88039 14.6453 2.4012 14.8438 1.90154 14.8438C1.40188 14.8438 0.922686 14.6453 0.569374 14.292C0.216061 13.9387 0.0175728 13.4595 0.0175728 12.9598C0.00651872 11.6719 0.435666 10.4189 1.23396 9.40815C2.03224 8.39744 3.15179 7.6897 4.40721 7.4021L36.0202 0.224192C37.1074 -0.0507252 38.2432 -0.0731135 39.3404 0.158742C40.4376 0.390597 41.4672 0.870543 42.3503 1.56181C43.284 2.35428 44.0278 3.34639 44.5267 4.46486C45.0256 5.58333 45.2669 6.79959 45.2328 8.02381V13.2047C45.2328 13.7044 45.0343 14.1836 44.681 14.5369C44.3276 14.8902 43.8484 15.0887 43.3488 15.0887Z" fill="#414141"/>
<path d="M47.1167 37.6962H33.929C31.9303 37.6962 30.0136 36.9022 28.6003 35.489C27.1871 34.0757 26.3931 32.1589 26.3931 30.1603C26.3931 28.1617 27.1871 26.2449 28.6003 24.8317C30.0136 23.4184 31.9303 22.6245 33.929 22.6245H47.1167C47.6164 22.6245 48.0956 22.8229 48.4489 23.1763C48.8022 23.5296 49.0007 24.0088 49.0007 24.5084V35.8122C49.0007 36.3119 48.8022 36.7911 48.4489 37.1444C48.0956 37.4977 47.6164 37.6962 47.1167 37.6962ZM33.929 26.3924C32.9296 26.3924 31.9713 26.7894 31.2646 27.496C30.558 28.2026 30.161 29.161 30.161 30.1603C30.161 31.1596 30.558 32.118 31.2646 32.8246C31.9713 33.5313 32.9296 33.9282 33.929 33.9282H45.2328V26.3924H33.929Z" fill="#414141"/>
</svg>
