<svg width="30" height="29" viewBox="0 0 30 29" fill="none" xmlns="http://www.w3.org/2000/svg">
<path d="M27.1425 12.5002H16.6424V2.00003C16.6424 0.900015 15.7424 0 14.6423 0C13.5423 0 12.6423 0.900015 12.6423 2.00003V12.5002H2.14212C1.04211 12.5002 0.14209 13.4002 0.14209 14.5002C0.14209 15.6003 1.04211 16.5003 2.14212 16.5003H12.6423V27.0005C12.6423 28.1005 13.5423 29.0005 14.6423 29.0005C15.7424 29.0005 16.6424 28.1005 16.6424 27.0005V16.5003H27.1425C28.2426 16.5003 29.1426 15.6003 29.1426 14.5002C29.1426 13.4002 28.2426 12.5002 27.1425 12.5002Z" fill="#414141"/>
</svg>
