<svg width="23" height="27" viewBox="0 0 23 27" fill="none" xmlns="http://www.w3.org/2000/svg">
<path d="M11.4861 0.824707C5.15284 0.824707 0 5.97754 0 12.3108C0 18.2639 4.58717 23.2424 10.4863 23.751L8.21253 24.9038C7.93207 25.0582 7.76411 25.4045 7.93128 25.6778L8.0113 25.8854C8.17846 26.1595 8.54053 26.2561 8.82019 26.1024L12.6159 24.159C12.6206 24.1559 12.6254 24.1567 12.6309 24.1535L12.8861 24.0141C13.0263 23.9364 13.1198 23.8104 13.157 23.6702C13.1958 23.53 13.1784 23.3731 13.0944 23.2369L12.9431 22.9889C12.9407 22.9841 12.936 22.981 12.9336 22.977L10.5893 19.3136C10.4229 19.0395 10.0617 18.9428 9.78041 19.0965L9.5966 19.2249C9.31614 19.3786 9.29713 19.7747 9.4635 20.0472L10.8468 22.1934C10.8397 22.1934 10.8325 22.1903 10.8254 22.1895C5.64404 21.8496 1.5861 17.5096 1.5861 12.31C1.5861 6.85061 6.02828 2.40843 11.4877 2.40843C16.948 2.40843 21.4147 6.84982 21.4147 12.31C21.4147 15.4537 19.9704 18.3415 17.4534 20.2318C17.1032 20.4949 17.0335 20.9916 17.2958 21.3418C17.5588 21.6919 18.0555 21.7625 18.4057 21.4994C21.326 19.3065 23 15.9568 23 12.3108C23 5.97754 17.8218 0.824707 11.4885 0.824707L11.4861 0.824707Z" fill="#414141"/>
</svg>
