<svg width="22" height="20" viewBox="0 0 22 20" fill="none" xmlns="http://www.w3.org/2000/svg">
<path d="M20.6944 17.1552L16.2071 12.9243C17.1343 11.6068 17.677 10.0293 17.677 8.33342C17.677 3.73837 13.712 0 8.83848 0C3.96494 0 0 3.73837 0 8.33342C0 12.9285 3.96494 16.6668 8.83848 16.6668C10.6371 16.6668 12.3102 16.1552 13.7076 15.281L18.1949 19.5119C18.8843 20.1627 20.005 20.1627 20.6944 19.5119C21.3847 18.861 21.3847 17.806 20.6944 17.1552ZM2.65154 8.33342C2.65154 5.11672 5.42682 2.50003 8.83848 2.50003C12.2501 2.50003 15.0254 5.11672 15.0254 8.33342C15.0254 11.5501 12.2501 14.1668 8.83848 14.1668C5.42682 14.1668 2.65154 11.5501 2.65154 8.33342Z" fill="#414141"/>
</svg>
