<svg width="40" height="43" viewBox="0 0 40 43" fill="none" xmlns="http://www.w3.org/2000/svg">
<path d="M1.00115 43C0.735854 43 0.470556 42.8991 0.271583 42.6635C0.0726088 42.4617 -0.026878 42.1925 0.00628427 41.8897L2.09551 9.32003C2.12867 8.78169 2.55978 8.37793 3.09038 8.37793H11.8452V8.24335C11.8452 6.02269 12.7074 3.97027 14.2329 2.38889C15.7915 0.874804 17.8144 0 20.0031 0C24.48 0 28.1611 3.7011 28.1611 8.27699C28.1611 8.31064 28.1279 8.34429 28.1279 8.37793V8.41158H36.9159C37.4465 8.41158 37.8776 8.81534 37.9108 9.35368L39.9668 41.6878C40 41.7887 40 41.856 40 41.957C39.9668 42.529 39.5357 43 38.972 43H1.00115ZM2.06235 40.9812H37.9108L35.9874 10.4304H28.1279V12.8529H28.1611C28.6917 13.223 28.9901 13.7613 28.9901 14.367C28.9901 15.41 28.1611 16.2512 27.133 16.2512C26.105 16.2512 25.2759 15.41 25.2759 14.367C25.2759 13.7613 25.5744 13.223 26.105 12.8529H26.1382V10.4304H13.835V12.8529H13.8681C14.3987 13.223 14.6972 13.7613 14.6972 14.367C14.6972 15.41 13.8681 16.2512 12.8401 16.2512C11.8121 16.2512 10.983 15.41 10.983 14.367C10.983 13.7613 11.2815 13.223 11.8121 12.8529H11.8452V10.4304H3.98576L2.06235 40.9812ZM20.0031 2.05243C16.6206 2.05243 13.835 4.84507 13.835 8.31064V8.44523H26.2045L26.1713 8.37793V8.31064C26.1713 4.84507 23.3857 2.05243 20.0031 2.05243Z" fill="#414141"/>
</svg>
