<svg width="44" height="49" viewBox="0 0 44 49" fill="none" xmlns="http://www.w3.org/2000/svg">
<path d="M20.6213 0C11.2472 0 0 7.53863 0 20.7307V30.1545C0 33.0126 1.24515 35.0491 2.5161 36.1647C3.29029 36.8457 3.61502 36.8565 4.13544 37.0619C4.81716 38.8325 9.17195 49 20.6234 49C20.6858 49 20.746 48.9935 20.8105 48.9935C20.8127 48.9935 20.8148 48.9935 20.817 48.9935C20.8191 48.9935 20.8213 48.9935 20.8234 48.9935C25.118 48.9438 28.5416 47.3591 31.1631 45.2318H20.6213C10.6214 45.2318 7.40208 35.2112 7.40208 35.2112L7.07735 34.2297L6.07736 33.979C6.07736 33.979 5.58704 33.8622 4.98275 33.3304C4.37845 32.7985 3.74835 32.0073 3.74835 30.1545V28.2693H5.6236C5.6236 15.0751 24.3718 24.5011 29.9954 11.3069C29.9954 11.3069 35.619 16.5084 35.619 28.2693V33.9227H37.1523C36.3846 36.1236 34.333 37.691 31.8685 37.691H24.1976C23.8105 36.5949 22.7783 35.8058 21.5568 35.8058H19.6815C18.1289 35.8058 16.8686 37.0727 16.8686 38.6336C16.8686 40.1945 18.1289 41.4614 19.6815 41.4614H21.5568C21.7245 41.4614 21.888 41.4376 22.0471 41.4095C22.1761 41.4441 22.3288 41.4614 22.4836 41.4614C22.4879 41.4614 22.4901 41.4614 22.4965 41.4614H31.8706C36.5416 41.4614 40.4319 37.9742 41.1243 33.4666C42.3071 32.8331 43.12 31.5944 43.12 30.1545V28.2693C43.12 26.877 42.363 25.675 41.2447 25.0243V20.7328C41.2447 13.1942 37.4964 3.77039 29.9954 3.77039C29.9954 3.77039 28.1201 0 20.6213 0Z" fill="#414141"/>
</svg>
