<svg width="75" height="75" viewBox="0 0 75 75" fill="none" xmlns="http://www.w3.org/2000/svg">
<rect width="75" height="75" rx="15" fill="#414141"/>
<rect x="18" y="24" width="37" height="31" fill="#F9F9F9"/>
<path d="M38 6C20.3269 6 6 20.3269 6 38C6 55.6731 20.3269 70 38 70C55.6731 70 70 55.6731 70 38C70 20.3269 55.6731 6 38 6ZM54.6324 26.242L48.9489 53.375C48.8801 53.7032 48.73 54.0088 48.5123 54.2638C48.2946 54.5188 48.0163 54.715 47.7029 54.8344C47.3896 54.9538 47.0513 54.9925 46.7191 54.9471C46.3869 54.9016 46.0715 54.7733 45.8018 54.5741L37.5347 48.4665L32.5263 53.1915C32.4607 53.2534 32.3835 53.3015 32.2991 53.3332C32.2147 53.3649 32.1249 53.3794 32.0348 53.376C31.9447 53.3726 31.8562 53.3513 31.7745 53.3133C31.6928 53.2753 31.6194 53.2214 31.5588 53.1548L31.4511 53.0365L32.3214 44.6146L48.0069 30.2833C48.0844 30.2125 48.1327 30.1152 48.1421 30.0107C48.1515 29.9061 48.1213 29.8018 48.0576 29.7184C47.9939 29.6349 47.9012 29.5784 47.7978 29.5599C47.6945 29.5415 47.5879 29.5624 47.4992 29.6186L27.4394 42.3149L18.8 39.4134C18.5703 39.3362 18.3701 39.1898 18.2268 38.9944C18.0836 38.7989 18.0044 38.5639 18 38.3216C17.9956 38.0793 18.0663 37.8416 18.2024 37.6411C18.3384 37.4406 18.5332 37.2871 18.76 37.2016L52.5625 24.468C52.8232 24.3699 53.1056 24.3436 53.3799 24.3919C53.6543 24.4402 53.9107 24.5614 54.1222 24.7427C54.3338 24.924 54.4927 25.1588 54.5825 25.4225C54.6722 25.6863 54.6894 25.9693 54.6324 26.242Z" fill="#414141"/>
</svg>
