<svg width="35" height="35" viewBox="0 0 35 35" fill="none" xmlns="http://www.w3.org/2000/svg">
<rect width="35" height="35" rx="11" fill="#414141"/>
<rect x="8.40002" y="11.2" width="17.2667" height="14.4667" fill="#F9F9F9"/>
<path d="M17.7334 2.80005C9.48592 2.80005 2.80005 9.48592 2.80005 17.7334C2.80005 25.9808 9.48592 32.6667 17.7334 32.6667C25.9808 32.6667 32.6667 25.9808 32.6667 17.7334C32.6667 9.48592 25.9808 2.80005 17.7334 2.80005ZM25.4952 12.2463L22.8429 24.9084C22.8108 25.0615 22.7407 25.2042 22.6391 25.3232C22.5375 25.4422 22.4076 25.5337 22.2614 25.5894C22.1152 25.6452 21.9573 25.6632 21.8023 25.642C21.6473 25.6208 21.5001 25.5609 21.3742 25.468L17.5163 22.6177L15.179 24.8227C15.1484 24.8516 15.1123 24.8741 15.073 24.8889C15.0336 24.9037 14.9917 24.9105 14.9496 24.9089C14.9076 24.9073 14.8663 24.8973 14.8282 24.8796C14.79 24.8618 14.7558 24.8367 14.7275 24.8056L14.6772 24.7504L15.0834 20.8202L22.4033 14.1322C22.4395 14.0992 22.462 14.0538 22.4663 14.005C22.4707 13.9562 22.4567 13.9076 22.4269 13.8686C22.3972 13.8297 22.3539 13.8033 22.3057 13.7947C22.2575 13.7861 22.2077 13.7958 22.1664 13.8221L12.8051 19.747L8.77338 18.393C8.66618 18.3569 8.57275 18.2886 8.5059 18.1974C8.43906 18.1062 8.40208 17.9965 8.40003 17.8835C8.39799 17.7704 8.43098 17.6595 8.49448 17.5659C8.55799 17.4723 8.64889 17.4007 8.75472 17.3608L24.5292 11.4184C24.6509 11.3727 24.7826 11.3604 24.9107 11.3829C25.0387 11.4055 25.1584 11.462 25.2571 11.5466C25.3558 11.6312 25.43 11.7408 25.4719 11.8639C25.5137 11.987 25.5218 12.1191 25.4952 12.2463Z" fill="#414141"/>
</svg>
