<svg width="75" height="75" viewBox="0 0 75 75" fill="none" xmlns="http://www.w3.org/2000/svg">
<rect width="75" height="75" rx="15" fill="#414141"/>
<path d="M63.9974 50.5927C63.9823 50.3506 63.9266 50.061 63.8268 49.8376C63.6123 49.3573 63.3102 48.859 62.9856 48.4407C61.2939 46.261 60.1715 45.1477 59.3256 44.2695C58.4797 43.3915 54.9986 40.2239 54.7709 39.5967C54.5431 38.9694 54.4699 38.6912 55.1165 37.8444C55.7631 36.9975 57.1784 34.8611 58.2846 33.3244C58.9784 32.3606 59.6086 31.3529 60.2312 30.3456C60.9653 29.158 61.6557 27.9415 62.2441 26.6802C62.5073 26.1162 62.7461 25.6024 62.5831 24.9705C62.4739 24.5471 62.2269 24.1751 61.7669 24.0706C61.5158 24.0136 61.2418 24.0078 60.9848 24.0078C60.0252 24.0078 57.52 24.0078 57.52 24.0078C57.0671 24.0078 56.6142 24.0015 56.1613 24.0023C55.697 24.0031 55.2289 23.9996 54.7659 24.0378C54.1073 24.0922 53.7036 24.5818 53.3723 25.0755C52.967 25.6795 52.5981 26.308 52.2049 26.9197C51.9361 27.3376 51.6731 27.7589 51.4147 28.183C51.011 28.8453 50.5951 29.5005 50.1792 30.1557C50.0066 30.4275 49.8334 30.6991 49.6632 30.9723C49.1752 31.7562 44.9458 37.1191 44.1 37.3387C43.2541 37.5584 42.9613 37.4956 42.9613 35.8334C42.9613 34.1712 42.9613 24.7314 42.9613 24.7314C42.9613 24.7314 42.8964 24.0035 42.1806 24.0035C41.4648 24.0035 38.1449 24.0035 38.1449 24.0035H31.2978C31.2978 24.0035 29.6875 24.01 30.2568 25.4057C30.8261 26.8013 32.5098 27.2247 32.5098 29.5532C32.5098 31.8817 32.5098 38.6794 32.5098 38.6794C32.5098 38.6794 32.2252 40.7257 30.387 39.0321C28.9385 37.6976 27.745 36.1198 26.6904 34.4838C25.594 32.783 24.7107 31.016 23.9239 29.1647C23.6989 28.6352 23.4761 28.1049 23.2449 27.5779C23.0037 27.0277 22.7647 26.4766 22.5333 25.9226C22.2646 25.2791 21.9772 24.4379 21.2527 24.1416C20.8885 23.9927 20.4857 24 20.0975 24.0001C18.6578 24.0004 17.2181 24.0043 15.7785 24.0017C15.3561 24.001 14.9336 24.0005 14.5112 24.0015C13.5138 24.0038 12.2733 23.9755 12.0367 25.1766C11.9004 25.8684 12.1714 26.6069 12.3983 27.2548C12.5012 27.5494 12.628 27.8325 12.7431 28.1221C13.3283 29.5946 14.0496 31.0145 14.7942 32.417C16.5633 35.749 18.3852 38.9868 20.8278 41.9155C23.2963 44.875 26.2107 47.7432 29.6438 49.6577C30.5987 50.1902 31.6024 50.6395 32.648 50.981C36.6822 52.2982 41.1068 52.1727 42.4731 51.2946C43.8396 50.4165 42.2129 44.6459 43.4492 43.9559C44.6855 43.2659 46.8978 44.7714 48.5244 46.1513C50.1511 47.5312 51.3874 48.7229 52.2984 49.6637C52.8689 50.2529 53.2705 50.9561 54.0142 51.3764C55.2444 52.0713 56.8835 51.9943 58.2557 51.998C59.0207 52.0001 59.7859 52.0026 60.5509 51.9934C61.068 51.9872 61.5852 52.0034 62.1019 51.9793C62.9507 51.9396 64.0611 51.6165 63.9974 50.5927Z" fill="#F9F9F9"/>
</svg>
