<svg width="35" height="35" viewBox="0 0 35 35" fill="none" xmlns="http://www.w3.org/2000/svg">
<rect width="35" height="35" rx="11" fill="#414141"/>
<path d="M29.8654 23.6099C29.8584 23.4969 29.8324 23.3618 29.7858 23.2575C29.6857 23.0334 29.5448 22.8008 29.3932 22.6056C28.6038 21.5884 28.08 21.0689 27.6853 20.6591C27.2905 20.2493 25.666 18.7711 25.5597 18.4784C25.4534 18.1857 25.4193 18.0558 25.721 17.6607C26.0228 17.2655 26.6832 16.2684 27.1995 15.5513C27.5232 15.1016 27.8173 14.6313 28.1079 14.1612C28.4505 13.607 28.7727 13.0393 29.0472 12.4507C29.17 12.1875 29.2815 11.9478 29.2054 11.6528C29.1545 11.4552 29.0392 11.2817 28.8245 11.2329C28.7074 11.2063 28.5795 11.2036 28.4596 11.2036C28.0117 11.2036 26.8426 11.2036 26.8426 11.2036C26.6313 11.2036 26.42 11.2006 26.2086 11.201C25.9919 11.2014 25.7734 11.1997 25.5574 11.2176C25.25 11.243 25.0617 11.4715 24.9071 11.7018C24.7179 11.9837 24.5457 12.277 24.3623 12.5625C24.2368 12.7575 24.1141 12.9541 23.9935 13.152C23.8051 13.4611 23.611 13.7668 23.4169 14.0726C23.3364 14.1995 23.2556 14.3262 23.1762 14.4537C22.9484 14.8195 20.9747 17.3222 20.58 17.4247C20.1852 17.5272 20.0486 17.4979 20.0486 16.7222C20.0486 15.9465 20.0486 11.5413 20.0486 11.5413C20.0486 11.5413 20.0183 11.2016 19.6843 11.2016C19.3502 11.2016 17.8009 11.2016 17.8009 11.2016H14.6056C14.6056 11.2016 13.8541 11.2046 14.1198 11.8559C14.3855 12.5072 15.1712 12.7048 15.1712 13.7915C15.1712 14.8781 15.1712 18.0503 15.1712 18.0503C15.1712 18.0503 15.0384 19.0053 14.1806 18.215C13.5046 17.5922 12.9476 16.8559 12.4555 16.0924C11.9439 15.2987 11.5316 14.4741 11.1645 13.6101C11.0595 13.3631 10.9555 13.1155 10.8476 12.8696C10.735 12.6129 10.6235 12.3557 10.5155 12.0972C10.3901 11.7968 10.256 11.4043 9.91792 11.266C9.74796 11.1965 9.55998 11.2 9.37881 11.2C8.70694 11.2002 8.0351 11.202 7.36327 11.2007C7.16614 11.2004 6.96901 11.2002 6.77187 11.2007C6.30643 11.2017 5.72752 11.1885 5.61711 11.749C5.55348 12.0719 5.67996 12.4165 5.78583 12.7189C5.83385 12.8563 5.89305 12.9884 5.94675 13.1236C6.21985 13.8108 6.55648 14.4734 6.90392 15.1279C7.72951 16.6828 8.57971 18.1938 9.71962 19.5605C10.8716 20.9416 12.2316 22.2801 13.8338 23.1736C14.2794 23.422 14.7478 23.6317 15.2357 23.7911C17.1183 24.4058 19.1831 24.3472 19.8208 23.9374C20.4585 23.5276 19.6993 20.8347 20.2763 20.5127C20.8532 20.1907 21.8856 20.8933 22.6447 21.5372C23.4038 22.1812 23.9807 22.7373 24.4059 23.1764C24.6721 23.4513 24.8595 23.7795 25.2066 23.9756C25.7807 24.2999 26.5456 24.264 27.186 24.2657C27.543 24.2667 27.9001 24.2678 28.2571 24.2635C28.4984 24.2607 28.7397 24.2682 28.9808 24.2569C29.377 24.2384 29.8951 24.0877 29.8654 23.6099Z" fill="#F9F9F9"/>
</svg>
